<?xml version="1.0" encoding="UTF-8" standalone="no"?>
<!DOCTYPE svg PUBLIC "-//W3C//DTD SVG 1.1//EN"
 "http://www.w3.org/Graphics/SVG/1.1/DTD/svg11.dtd">
<!-- Generated by graphviz version 2.31.20130521.0446 (20130521.0446)
 -->
<!-- Title: %3 Pages: 1 -->
<svg width="1060pt" height="414pt"
 viewBox="0.00 0.00 1059.69 414.11" xmlns="http://www.w3.org/2000/svg" xmlns:xlink="http://www.w3.org/1999/xlink">
<g id="graph0" class="graph" transform="scale(1 1) rotate(0) translate(4 410.108)">
<title>%3</title>
<polygon fill="white" stroke="white" points="-4,5 -4,-410.108 1056.69,-410.108 1056.69,5 -4,5"/>
<!-- Entity -->
<g id="node1" class="node"><title>Entity</title>
<ellipse fill="none" stroke="black" cx="446.424" cy="-360.108" rx="72.1307" ry="46"/>
<text text-anchor="start" x="427.924" y="-378.408" font-family="Times,serif" font-weight="bold" font-size="14.00">Entity</text>
<text text-anchor="start" x="416.424" y="-364.408" font-family="Times,serif" font-size="14.00">title: string</text>
<text text-anchor="start" x="403.924" y="-350.408" font-family="Times,serif" font-size="14.00">subType: string</text>
<text text-anchor="start" x="415.424" y="-336.408" font-family="Times,serif" font-size="14.00">type: string</text>
</g>
<!-- Company -->
<g id="node2" class="node"><title>Company</title>
<ellipse fill="none" stroke="black" cx="291.169" cy="-26.163" rx="91.8478" ry="26.3269"/>
<text text-anchor="start" x="262.169" y="-30.463" font-family="Times,serif" font-weight="bold" font-size="14.00">Company</text>
<text text-anchor="start" x="234.669" y="-16.463" font-family="Times,serif" font-size="14.00">netIncome: currency</text>
</g>
<!-- Organization -->
<g id="node4" class="node"><title>Organization</title>
<ellipse fill="none" stroke="black" cx="446.424" cy="-178.489" rx="89.6056" ry="26.3269"/>
<text text-anchor="start" x="407.424" y="-182.789" font-family="Times,serif" font-weight="bold" font-size="14.00">Organization</text>
<text text-anchor="start" x="391.424" y="-168.789" font-family="Times,serif" font-size="14.00">formationDate: date</text>
</g>
<!-- Company&#45;&gt;Organization -->
<g id="edge7" class="edge"><title>Company&#45;&gt;Organization</title>
<path fill="none" stroke="black" d="M311.663,-52.1354C332.859,-78.1297 349.03,-93.3454 410.223,-146.885"/>
<polygon fill="black" stroke="black" points="408.08,-149.66 417.913,-153.607 412.688,-144.39 408.08,-149.66"/>
</g>
<!-- Person -->
<g id="node3" class="node"><title>Person</title>
<ellipse fill="none" stroke="black" cx="70.0036" cy="-178.489" rx="70.0071" ry="26.3269"/>
<text text-anchor="start" x="50.0036" y="-182.789" font-family="Times,serif" font-weight="bold" font-size="14.00">Person</text>
<text text-anchor="start" x="29.0036" y="-168.789" font-family="Times,serif" font-size="14.00">birthDate: date</text>
</g>
<!-- Person&#45;&gt;Entity -->
<g id="edge1" class="edge"><title>Person&#45;&gt;Entity</title>
<path fill="none" stroke="black" d="M93.859,-203.089C169.08,-279.909 193.249,-292.786 369.874,-339.911"/>
<polygon fill="black" stroke="black" points="369.215,-343.358 379.779,-342.548 371.016,-336.593 369.215,-343.358"/>
</g>
<!-- Person&#45;&gt;Company -->
<g id="edge3" class="edge"><title>Person&#45;&gt;Company</title>
<path fill="none" stroke="lightgrey" d="M86.6809,-152.928C123.104,-98.1495 139.705,-84.7585 226.361,-50.8536"/>
<polygon fill="lightgrey" stroke="lightgrey" points="227.775,-54.059 235.828,-47.1741 225.239,-47.5344 227.775,-54.059"/>
<text text-anchor="middle" x="128.559" y="-88.365" font-family="Times,serif" font-size="14.00">worksAt</text>
</g>
<!-- Person&#45;&gt;Person -->
<g id="edge2" class="edge"><title>Person&#45;&gt;Person</title>
<path fill="none" stroke="lightgrey" d="M126.403,-193.999C156.098,-196.508 183.007,-191.338 183.007,-178.489 183.007,-167.145 162.035,-161.786 136.689,-162.413"/>
<polygon fill="lightgrey" stroke="lightgrey" points="136.195,-158.935 126.403,-162.979 136.58,-165.924 136.195,-158.935"/>
<text text-anchor="middle" x="201.007" y="-174.789" font-family="Times,serif" font-size="14.00">knows</text>
</g>
<!-- Location -->
<g id="node5" class="node"><title>Location</title>
<ellipse fill="none" stroke="black" cx="938.554" cy="-178.489" rx="113.274" ry="26.3269"/>
<text text-anchor="start" x="912.554" y="-182.789" font-family="Times,serif" font-weight="bold" font-size="14.00">Location</text>
<text text-anchor="start" x="867.054" y="-168.789" font-family="Times,serif" font-size="14.00">geoLocation: geoLocation</text>
</g>
<!-- Person&#45;&gt;Location -->
<g id="edge4" class="edge"><title>Person&#45;&gt;Location</title>
<path fill="none" stroke="lightgrey" d="M117.614,-159.097C374.652,-54.9958 414.169,-54.416 849.542,-157.358"/>
<polygon fill="lightgrey" stroke="lightgrey" points="849.035,-160.835 859.572,-159.731 850.647,-154.023 849.035,-160.835"/>
<text text-anchor="middle" x="474.321" y="-89.0122" font-family="Times,serif" font-size="14.00">livesAt</text>
</g>
<!-- Organization&#45;&gt;Entity -->
<g id="edge5" class="edge"><title>Organization&#45;&gt;Entity</title>
<path fill="none" stroke="black" d="M440.055,-204.642C427.018,-258.657 422.741,-281.583 427.224,-305.381"/>
<polygon fill="black" stroke="black" points="423.873,-306.422 429.576,-315.351 430.686,-304.814 423.873,-306.422"/>
</g>
<!-- Organization&#45;&gt;Location -->
<g id="edge6" class="edge"><title>Organization&#45;&gt;Location</title>
<path fill="none" stroke="lightgrey" d="M535.61,-174.779C697.714,-168.111 762.163,-166.169 821.941,-168.954"/>
<polygon fill="lightgrey" stroke="lightgrey" points="822.12,-172.467 832.287,-169.484 822.479,-165.477 822.12,-172.467"/>
<text text-anchor="middle" x="671.652" y="-172.122" font-family="Times,serif" font-size="14.00">headquarteredAt</text>
</g>
<!-- Location&#45;&gt;Entity -->
<g id="edge8" class="edge"><title>Location&#45;&gt;Entity</title>
<path fill="none" stroke="black" d="M909.247,-203.961C799.322,-298.791 770.745,-310.253 526.737,-347.874"/>
<polygon fill="black" stroke="black" points="526.193,-344.417 516.842,-349.396 527.258,-351.335 526.193,-344.417"/>
</g>
</g>
</svg>
