<?xml version="1.0" encoding="UTF-8" standalone="no"?>
<!DOCTYPE svg PUBLIC "-//W3C//DTD SVG 1.1//EN"
 "http://www.w3.org/Graphics/SVG/1.1/DTD/svg11.dtd">
<!-- Generated by graphviz version 2.31.20130521.0446 (20130521.0446)
 -->
<!-- Title: %3 Pages: 1 -->
<svg width="1908pt" height="523pt"
 viewBox="0.00 0.00 1907.63 523.45" xmlns="http://www.w3.org/2000/svg" xmlns:xlink="http://www.w3.org/1999/xlink">
<g id="graph0" class="graph" transform="scale(1 1) rotate(0) translate(4 519.448)">
<title>%3</title>
<polygon fill="white" stroke="white" points="-4,5 -4,-519.448 1904.63,-519.448 1904.63,5 -4,5"/>
<!-- Entity -->
<g id="node1" class="node"><title>Entity</title>
<ellipse fill="none" stroke="black" cx="1225.6" cy="-459.448" rx="84.788" ry="56"/>
<text text-anchor="start" x="1207.1" y="-484.748" font-family="Times,serif" font-weight="bold" font-size="14.00">Entity</text>
<text text-anchor="start" x="1174.1" y="-470.748" font-family="Times,serif" font-size="14.00">_glyphIcon: image</text>
<text text-anchor="start" x="1195.6" y="-456.748" font-family="Times,serif" font-size="14.00">title: string</text>
<text text-anchor="start" x="1179.6" y="-442.748" font-family="Times,serif" font-size="14.00">_subType: string</text>
<text text-anchor="start" x="1191.1" y="-428.748" font-family="Times,serif" font-size="14.00">_type: string</text>
</g>
<!-- Company -->
<g id="node2" class="node"><title>Company</title>
<ellipse fill="none" stroke="black" cx="1225.6" cy="-110.861" rx="91.8478" ry="26.3269"/>
<text text-anchor="start" x="1196.6" y="-115.161" font-family="Times,serif" font-weight="bold" font-size="14.00">Company</text>
<text text-anchor="start" x="1169.1" y="-101.161" font-family="Times,serif" font-size="14.00">netIncome: currency</text>
</g>
<!-- Organization -->
<g id="node4" class="node"><title>Organization</title>
<ellipse fill="none" stroke="black" cx="446.413" cy="-263.187" rx="89.6056" ry="26.3269"/>
<text text-anchor="start" x="407.413" y="-267.487" font-family="Times,serif" font-weight="bold" font-size="14.00">Organization</text>
<text text-anchor="start" x="391.413" y="-253.487" font-family="Times,serif" font-size="14.00">formationDate: date</text>
</g>
<!-- Company&#45;&gt;Organization -->
<g id="edge11" class="edge"><title>Company&#45;&gt;Organization</title>
<path fill="none" stroke="black" d="M1136.15,-104.549C747.051,-77.5942 709.232,-85.823 490.581,-233.26"/>
<polygon fill="black" stroke="black" points="488.385,-230.52 482.056,-239.017 492.302,-236.321 488.385,-230.52"/>
</g>
<!-- Location -->
<g id="node5" class="node"><title>Location</title>
<ellipse fill="none" stroke="black" cx="1225.6" cy="-263.187" rx="113.274" ry="26.3269"/>
<text text-anchor="start" x="1199.6" y="-267.487" font-family="Times,serif" font-weight="bold" font-size="14.00">Location</text>
<text text-anchor="start" x="1154.1" y="-253.487" font-family="Times,serif" font-size="14.00">geoLocation: geoLocation</text>
</g>
<!-- Company&#45;&gt;Location -->
<g id="edge12" class="edge"><title>Company&#45;&gt;Location</title>
<path fill="none" stroke="lightgrey" d="M1236.75,-136.995C1249.98,-169.878 1250.07,-183.718 1237,-227.072"/>
<polygon fill="lightgrey" stroke="lightgrey" points="1233.61,-226.201 1234.01,-236.788 1240.3,-228.259 1233.61,-226.201"/>
<text text-anchor="middle" x="1200.69" y="-191.661" font-family="Times,serif" font-size="14.00">headquarteredAt</text>
</g>
<!-- Phone Number -->
<g id="node6" class="node"><title>Phone Number</title>
<ellipse fill="none" stroke="black" cx="1555.14" cy="-263.187" rx="68.7879" ry="18"/>
<text text-anchor="start" x="1510.64" y="-260.487" font-family="Times,serif" font-weight="bold" font-size="14.00">Phone Number</text>
</g>
<!-- Company&#45;&gt;Phone Number -->
<g id="edge13" class="edge"><title>Company&#45;&gt;Phone Number</title>
<path fill="none" stroke="lightgrey" d="M1295.01,-128.113C1443.72,-165.554 1467.21,-176.94 1530.11,-238.375"/>
<polygon fill="lightgrey" stroke="lightgrey" points="1527.98,-241.191 1537.56,-245.705 1532.88,-236.199 1527.98,-241.191"/>
<text text-anchor="middle" x="1396.25" y="-178.049" font-family="Times,serif" font-size="14.00">hasPhoneNumber</text>
</g>
<!-- Email Address -->
<g id="node7" class="node"><title>Email Address</title>
<ellipse fill="none" stroke="black" cx="1826.09" cy="-263.187" rx="73.5782" ry="26.3269"/>
<text text-anchor="start" x="1782.59" y="-267.487" font-family="Times,serif" font-weight="bold" font-size="14.00">Email Address</text>
<text text-anchor="start" x="1790.59" y="-253.487" font-family="Times,serif" font-size="14.00">active: string</text>
</g>
<!-- Company&#45;&gt;Email Address -->
<g id="edge14" class="edge"><title>Company&#45;&gt;Email Address</title>
<path fill="none" stroke="lightgrey" d="M1309.87,-121.338C1612,-159.129 1653.9,-168.48 1777.4,-236.106"/>
<polygon fill="lightgrey" stroke="lightgrey" points="1775.99,-239.325 1786.43,-241.077 1779.36,-233.191 1775.99,-239.325"/>
<text text-anchor="middle" x="1562.62" y="-171.335" font-family="Times,serif" font-size="14.00">hasEmailAddress</text>
</g>
<!-- Person -->
<g id="node3" class="node"><title>Person</title>
<ellipse fill="none" stroke="black" cx="70.0036" cy="-263.187" rx="70.0071" ry="26.3269"/>
<text text-anchor="start" x="50.0036" y="-267.487" font-family="Times,serif" font-weight="bold" font-size="14.00">Person</text>
<text text-anchor="start" x="29.0036" y="-253.487" font-family="Times,serif" font-size="14.00">birthDate: date</text>
</g>
<!-- Person&#45;&gt;Entity -->
<g id="edge1" class="edge"><title>Person&#45;&gt;Entity</title>
<path fill="none" stroke="black" d="M117.238,-282.797C406.95,-402.681 452.703,-409.927 1131.06,-453.406"/>
<polygon fill="black" stroke="black" points="1130.89,-456.902 1141.09,-454.049 1131.34,-449.916 1130.89,-456.902"/>
</g>
<!-- Person&#45;&gt;Company -->
<g id="edge3" class="edge"><title>Person&#45;&gt;Company</title>
<path fill="none" stroke="lightgrey" d="M115.41,-243.274C416.21,-111.784 460.703,-105.829 1123.19,-110.161"/>
<polygon fill="lightgrey" stroke="lightgrey" points="1123.46,-113.663 1133.49,-110.229 1123.51,-106.663 1123.46,-113.663"/>
<text text-anchor="middle" x="597.571" y="-117.942" font-family="Times,serif" font-size="14.00">worksAt</text>
</g>
<!-- Person&#45;&gt;Person -->
<g id="edge2" class="edge"><title>Person&#45;&gt;Person</title>
<path fill="none" stroke="lightgrey" d="M126.403,-278.697C156.098,-281.207 183.007,-276.037 183.007,-263.187 183.007,-251.843 162.035,-246.485 136.689,-247.111"/>
<polygon fill="lightgrey" stroke="lightgrey" points="136.195,-243.633 126.403,-247.677 136.58,-250.623 136.195,-243.633"/>
<text text-anchor="middle" x="201.007" y="-259.487" font-family="Times,serif" font-size="14.00">knows</text>
</g>
<!-- Person&#45;&gt;Location -->
<g id="edge4" class="edge"><title>Person&#45;&gt;Location</title>
<path fill="none" stroke="lightgrey" d="M138.725,-257.693C406.113,-236.591 468.333,-237.008 1103.22,-258.945"/>
<polygon fill="lightgrey" stroke="lightgrey" points="1103.44,-262.455 1113.55,-259.303 1103.68,-255.459 1103.44,-262.455"/>
<text text-anchor="middle" x="606.283" y="-247.89" font-family="Times,serif" font-size="14.00">livesAt</text>
</g>
<!-- Person&#45;&gt;Phone Number -->
<g id="edge5" class="edge"><title>Person&#45;&gt;Phone Number</title>
<path fill="none" stroke="lightgrey" d="M133.976,-252.395C517.696,-188.042 573.433,-189.736 1478.84,-257.475"/>
<polygon fill="lightgrey" stroke="lightgrey" points="1478.62,-260.969 1488.86,-258.225 1479.14,-253.988 1478.62,-260.969"/>
<text text-anchor="middle" x="764.998" y="-215.574" font-family="Times,serif" font-size="14.00">hasPhoneNumber</text>
</g>
<!-- Person&#45;&gt;Email Address -->
<g id="edge6" class="edge"><title>Person&#45;&gt;Email Address</title>
<path fill="none" stroke="lightgrey" d="M117.369,-243.898C912.923,79.9245 946.781,81.1936 1767.16,-240.091"/>
<polygon fill="lightgrey" stroke="lightgrey" points="1765.96,-243.378 1776.54,-243.766 1768.51,-236.86 1765.96,-243.378"/>
<text text-anchor="middle" x="904.083" y="-4.0434" font-family="Times,serif" font-size="14.00">hasEmailAddress</text>
</g>
<!-- Organization&#45;&gt;Entity -->
<g id="edge7" class="edge"><title>Organization&#45;&gt;Entity</title>
<path fill="none" stroke="black" d="M478.781,-287.823C701.453,-456.884 734.406,-468.256 1130.76,-461.259"/>
<polygon fill="black" stroke="black" points="1130.86,-464.758 1140.79,-461.08 1130.73,-457.759 1130.86,-464.758"/>
</g>
<!-- Organization&#45;&gt;Location -->
<g id="edge8" class="edge"><title>Organization&#45;&gt;Location</title>
<path fill="none" stroke="lightgrey" d="M535.806,-265.967C676.896,-270.069 745.681,-269.703 1102.37,-264.87"/>
<polygon fill="lightgrey" stroke="lightgrey" points="1102.51,-268.369 1112.46,-264.733 1102.42,-261.369 1102.51,-268.369"/>
<text text-anchor="middle" x="778.532" y="-272.052" font-family="Times,serif" font-size="14.00">headquarteredAt</text>
</g>
<!-- Organization&#45;&gt;Phone Number -->
<g id="edge9" class="edge"><title>Organization&#45;&gt;Phone Number</title>
<path fill="none" stroke="lightgrey" d="M535.83,-265.913C1162.51,-284.984 1227.38,-285.874 1478.3,-268.583"/>
<polygon fill="lightgrey" stroke="lightgrey" points="1478.72,-272.062 1488.46,-267.88 1478.24,-265.078 1478.72,-272.062"/>
<text text-anchor="middle" x="1099.48" y="-284.683" font-family="Times,serif" font-size="14.00">hasPhoneNumber</text>
</g>
<!-- Organization&#45;&gt;Email Address -->
<g id="edge10" class="edge"><title>Organization&#45;&gt;Email Address</title>
<path fill="none" stroke="lightgrey" d="M536.479,-263.941C1347.21,-270.716 1418.65,-271.006 1742.44,-264.81"/>
<polygon fill="lightgrey" stroke="lightgrey" points="1742.66,-268.307 1752.59,-264.616 1742.52,-261.308 1742.66,-268.307"/>
<text text-anchor="middle" x="1370.07" y="-273.04" font-family="Times,serif" font-size="14.00">hasEmailAddress</text>
</g>
<!-- Location&#45;&gt;Entity -->
<g id="edge15" class="edge"><title>Location&#45;&gt;Entity</title>
<path fill="none" stroke="black" d="M1234.17,-289.414C1251.75,-343.789 1257.12,-366.512 1250.28,-395.173"/>
<polygon fill="black" stroke="black" points="1246.81,-394.603 1247.5,-405.175 1253.55,-396.482 1246.81,-394.603"/>
</g>
<!-- Phone Number&#45;&gt;Entity -->
<g id="edge16" class="edge"><title>Phone Number&#45;&gt;Entity</title>
<path fill="none" stroke="black" d="M1541.35,-280.858C1475.42,-364.981 1457.02,-380.08 1310.87,-430.538"/>
<polygon fill="black" stroke="black" points="1309.38,-427.351 1301.06,-433.914 1311.66,-433.97 1309.38,-427.351"/>
</g>
<!-- Email Address&#45;&gt;Entity -->
<g id="edge17" class="edge"><title>Email Address&#45;&gt;Entity</title>
<path fill="none" stroke="black" d="M1791.84,-286.579C1660.22,-375.866 1626.18,-387.463 1317.6,-442.988"/>
<polygon fill="black" stroke="black" points="1316.67,-439.598 1307.45,-444.813 1317.91,-446.488 1316.67,-439.598"/>
</g>
</g>
</svg>
