<?xml version="1.0" encoding="UTF-8" standalone="no"?>
<!DOCTYPE svg PUBLIC "-//W3C//DTD SVG 1.1//EN"
 "http://www.w3.org/Graphics/SVG/1.1/DTD/svg11.dtd">
<!-- Generated by graphviz version 2.31.20130521.0446 (20130521.0446)
 -->
<!-- Title: %3 Pages: 1 -->
<svg width="3261pt" height="421pt"
 viewBox="0.00 0.00 3261.08 420.57" xmlns="http://www.w3.org/2000/svg" xmlns:xlink="http://www.w3.org/1999/xlink">
<g id="graph0" class="graph" transform="scale(1 1) rotate(0) translate(4 416.568)">
<title>%3</title>
<polygon fill="white" stroke="white" points="-4,5 -4,-416.568 3258.08,-416.568 3258.08,5 -4,5"/>
<!-- Entity -->
<g id="node1" class="node"><title>Entity</title>
<ellipse fill="none" stroke="black" cx="2066.07" cy="-356.568" rx="84.788" ry="56"/>
<text text-anchor="start" x="2047.57" y="-381.868" font-family="Times,serif" font-weight="bold" font-size="14.00">Entity</text>
<text text-anchor="start" x="2020.07" y="-367.868" font-family="Times,serif" font-size="14.00">_subType: string</text>
<text text-anchor="start" x="2036.07" y="-353.868" font-family="Times,serif" font-size="14.00">title: string</text>
<text text-anchor="start" x="2014.57" y="-339.868" font-family="Times,serif" font-size="14.00">_glyphIcon: image</text>
<text text-anchor="start" x="2031.57" y="-325.868" font-family="Times,serif" font-size="14.00">_type: string</text>
</g>
<!-- Artifact -->
<g id="node8" class="node"><title>Artifact</title>
<ellipse fill="none" stroke="black" cx="1094.36" cy="-170.82" rx="38.1938" ry="18"/>
<text text-anchor="middle" x="1094.36" y="-167.12" font-family="Times,serif" font-size="14.00">Artifact</text>
</g>
<!-- Entity&#45;&gt;Artifact -->
<g id="edge1" class="edge"><title>Entity&#45;&gt;Artifact</title>
<path fill="none" stroke="lightgrey" d="M1989.49,-332.697C1797.69,-286.395 1300.85,-192.024 1143.14,-172.719"/>
<polygon fill="lightgrey" stroke="lightgrey" points="1143.16,-169.197 1132.82,-171.509 1142.34,-176.15 1143.16,-169.197"/>
<text text-anchor="middle" x="1527.01" y="-246.381" font-family="Times,serif" font-size="14.00">hasImage</text>
</g>
<!-- company -->
<g id="node2" class="node"><title>company</title>
<ellipse fill="none" stroke="black" cx="3161.16" cy="-26.6566" rx="91.8478" ry="26.3269"/>
<text text-anchor="start" x="3134.16" y="-30.9566" font-family="Times,serif" font-weight="bold" font-size="14.00">company</text>
<text text-anchor="start" x="3104.66" y="-16.9566" font-family="Times,serif" font-size="14.00">netIncome: currency</text>
</g>
<!-- organization -->
<g id="node4" class="node"><title>organization</title>
<ellipse fill="none" stroke="black" cx="1765.27" cy="-170.82" rx="89.6056" ry="26.3269"/>
<text text-anchor="start" x="1728.77" y="-175.12" font-family="Times,serif" font-weight="bold" font-size="14.00">organization</text>
<text text-anchor="start" x="1710.27" y="-161.12" font-family="Times,serif" font-size="14.00">formationDate: date</text>
</g>
<!-- company&#45;&gt;organization -->
<g id="edge28" class="edge"><title>company&#45;&gt;organization</title>
<path fill="none" stroke="black" d="M3073.03,-34.2739C2748.19,-62.4341 2673.4,-70.4237 1859.59,-160.392"/>
<polygon fill="black" stroke="black" points="1858.93,-156.943 1849.37,-161.521 1859.7,-163.901 1858.93,-156.943"/>
</g>
<!-- person -->
<g id="node3" class="node"><title>person</title>
<ellipse fill="none" stroke="black" cx="1303.67" cy="-170.82" rx="70.0071" ry="26.3269"/>
<text text-anchor="start" x="1283.67" y="-175.12" font-family="Times,serif" font-weight="bold" font-size="14.00">person</text>
<text text-anchor="start" x="1262.67" y="-161.12" font-family="Times,serif" font-size="14.00">birthDate: date</text>
</g>
<!-- person&#45;&gt;Entity -->
<g id="edge2" class="edge"><title>person&#45;&gt;Entity</title>
<path fill="none" stroke="black" d="M1350.87,-190.21C1736.14,-348.421 1795.28,-369.68 1971.56,-361.985"/>
<polygon fill="black" stroke="black" points="1971.86,-365.475 1981.69,-361.518 1971.54,-358.483 1971.86,-365.475"/>
</g>
<!-- person&#45;&gt;company -->
<g id="edge4" class="edge"><title>person&#45;&gt;company</title>
<path fill="none" stroke="lightgrey" d="M1371.26,-163.654C2518.71,-42.0253 2602.66,-33.9271 3058.84,-27.93"/>
<polygon fill="lightgrey" stroke="lightgrey" points="3059.05,-31.4277 3069,-27.7975 3058.96,-24.4283 3059.05,-31.4277"/>
<text text-anchor="middle" x="2404.28" y="-56.2298" font-family="Times,serif" font-size="14.00">personWorksAtCompany</text>
</g>
<!-- person&#45;&gt;person -->
<g id="edge3" class="edge"><title>person&#45;&gt;person</title>
<path fill="none" stroke="lightgrey" d="M1360.07,-186.329C1389.77,-188.839 1416.68,-183.669 1416.68,-170.82 1416.68,-159.476 1395.7,-154.117 1370.36,-154.744"/>
<polygon fill="lightgrey" stroke="lightgrey" points="1369.86,-151.265 1360.07,-155.31 1370.25,-158.255 1369.86,-151.265"/>
<text text-anchor="middle" x="1472.68" y="-167.12" font-family="Times,serif" font-size="14.00">personKnowsPerson</text>
</g>
<!-- location -->
<g id="node5" class="node"><title>location</title>
<ellipse fill="none" stroke="black" cx="2326.67" cy="-170.82" rx="113.274" ry="26.3269"/>
<text text-anchor="start" x="2303.67" y="-175.12" font-family="Times,serif" font-weight="bold" font-size="14.00">location</text>
<text text-anchor="start" x="2255.17" y="-161.12" font-family="Times,serif" font-size="14.00">geoLocation: geoLocation</text>
</g>
<!-- person&#45;&gt;location -->
<g id="edge5" class="edge"><title>person&#45;&gt;location</title>
<path fill="none" stroke="lightgrey" d="M1373.3,-167.102C1927.39,-137.559 2011.69,-134.383 2216.17,-157.575"/>
<polygon fill="lightgrey" stroke="lightgrey" points="2215.98,-161.076 2226.31,-158.735 2216.77,-154.121 2215.98,-161.076"/>
<text text-anchor="middle" x="1861.84" y="-131.363" font-family="Times,serif" font-size="14.00">personLivesAtLocation</text>
</g>
<!-- phoneNumber -->
<g id="node6" class="node"><title>phoneNumber</title>
<ellipse fill="none" stroke="black" cx="2634.41" cy="-170.82" rx="66.0889" ry="18"/>
<text text-anchor="start" x="2591.91" y="-168.12" font-family="Times,serif" font-weight="bold" font-size="14.00">phoneNumber</text>
</g>
<!-- person&#45;&gt;phoneNumber -->
<g id="edge6" class="edge"><title>person&#45;&gt;phoneNumber</title>
<path fill="none" stroke="lightgrey" d="M1373.71,-168.742C2175.72,-144.965 2238.8,-143.956 2559.91,-165.714"/>
<polygon fill="lightgrey" stroke="lightgrey" points="2559.76,-169.212 2569.98,-166.398 2560.24,-162.228 2559.76,-169.212"/>
<text text-anchor="middle" x="2079.15" y="-138.953" font-family="Times,serif" font-size="14.00">personHasPhoneNumber</text>
</g>
<!-- emailAddress -->
<g id="node7" class="node"><title>emailAddress</title>
<ellipse fill="none" stroke="black" cx="2881.15" cy="-170.82" rx="68.6788" ry="26.3269"/>
<text text-anchor="start" x="2841.15" y="-175.12" font-family="Times,serif" font-weight="bold" font-size="14.00">emailAddress</text>
<text text-anchor="start" x="2845.65" y="-161.12" font-family="Times,serif" font-size="14.00">active: string</text>
</g>
<!-- person&#45;&gt;emailAddress -->
<g id="edge7" class="edge"><title>person&#45;&gt;emailAddress</title>
<path fill="none" stroke="lightgrey" d="M1373.66,-169.29C2345.58,-148.063 2412.39,-147.248 2802.7,-166.846"/>
<polygon fill="lightgrey" stroke="lightgrey" points="2802.7,-170.35 2812.86,-167.357 2803.05,-163.359 2802.7,-170.35"/>
<text text-anchor="middle" x="2238.79" y="-141.559" font-family="Times,serif" font-size="14.00">personHasEmailAddress</text>
</g>
<!-- endDate -->
<g id="node9" class="node"><title>endDate</title>
<ellipse fill="none" stroke="black" cx="1798.54" cy="-26.6566" rx="40.0939" ry="18"/>
<text text-anchor="middle" x="1798.54" y="-22.9566" font-family="Times,serif" font-size="14.00">endDate</text>
</g>
<!-- person&#45;&gt;endDate -->
<g id="edge8" class="edge"><title>person&#45;&gt;endDate</title>
<path fill="none" stroke="lightgrey" d="M1340.21,-193.214C1444.88,-210.866 1736.42,-123.165 1790.65,-53.6774"/>
<polygon fill="lightgrey" stroke="lightgrey" points="1793.84,-55.1832 1796.27,-44.8711 1787.94,-51.4161 1793.84,-55.1832"/>
<text text-anchor="middle" x="1516.38" y="-144.913" font-family="Times,serif" font-size="14.00">personHasPhoneNumber</text>
</g>
<!-- person&#45;&gt;endDate -->
<g id="edge9" class="edge"><title>person&#45;&gt;endDate</title>
<path fill="none" stroke="lightgrey" d="M1310.95,-144.597C1365.44,-72.4911 1678.26,19.8197 1772.55,-6.58126"/>
<polygon fill="lightgrey" stroke="lightgrey" points="1771.61,-9.96388 1782.21,-10.0582 1773.98,-3.3777 1771.61,-9.96388"/>
<text text-anchor="middle" x="1470.78" y="-40.1153" font-family="Times,serif" font-size="14.00">personLivesAtLocation</text>
</g>
<!-- person&#45;&gt;endDate -->
<g id="edge10" class="edge"><title>person&#45;&gt;endDate</title>
<path fill="none" stroke="lightgrey" d="M1328.93,-146.386C1407.62,-102.403 1647.74,-31.532 1750.87,-20.7083"/>
<polygon fill="lightgrey" stroke="lightgrey" points="1751.35,-24.1797 1761,-19.8091 1750.73,-17.2072 1751.35,-24.1797"/>
<text text-anchor="middle" x="1484.93" y="-71.9111" font-family="Times,serif" font-size="14.00">personKnowsPerson</text>
</g>
<!-- person&#45;&gt;endDate -->
<g id="edge11" class="edge"><title>person&#45;&gt;endDate</title>
<path fill="none" stroke="lightgrey" d="M1359,-154.702C1458.31,-125.772 1664.82,-65.6121 1754.92,-39.3644"/>
<polygon fill="lightgrey" stroke="lightgrey" points="1755.93,-42.7162 1764.55,-36.5589 1753.97,-35.9956 1755.93,-42.7162"/>
<text text-anchor="middle" x="1494.23" y="-99.4418" font-family="Times,serif" font-size="14.00">personHasEmailAddress</text>
</g>
<!-- person&#45;&gt;endDate -->
<g id="edge12" class="edge"><title>person&#45;&gt;endDate</title>
<path fill="none" stroke="lightgrey" d="M1373.38,-173.878C1487.18,-156.46 1706.78,-90.0642 1776.76,-49.101"/>
<polygon fill="lightgrey" stroke="lightgrey" points="1778.67,-52.0375 1785.26,-43.7441 1774.93,-46.1158 1778.67,-52.0375"/>
<text text-anchor="middle" x="1521.53" y="-124.11" font-family="Times,serif" font-size="14.00">personWorksAtCompany</text>
</g>
<!-- startDate -->
<g id="node10" class="node"><title>startDate</title>
<ellipse fill="none" stroke="black" cx="42.2463" cy="-26.6566" rx="42.4939" ry="18"/>
<text text-anchor="middle" x="42.2463" y="-22.9566" font-family="Times,serif" font-size="14.00">startDate</text>
</g>
<!-- person&#45;&gt;startDate -->
<g id="edge13" class="edge"><title>person&#45;&gt;startDate</title>
<path fill="none" stroke="lightgrey" d="M1277.06,-146.44C1113.88,-69.7244 251.345,28.8934 74.0609,-8.82683"/>
<polygon fill="lightgrey" stroke="lightgrey" points="73.1591,-5.44435 64.293,-11.2446 74.841,-12.2393 73.1591,-5.44435"/>
<text text-anchor="middle" x="607.554" y="-37.9164" font-family="Times,serif" font-size="14.00">personHasPhoneNumber</text>
</g>
<!-- person&#45;&gt;startDate -->
<g id="edge14" class="edge"><title>person&#45;&gt;startDate</title>
<path fill="none" stroke="lightgrey" d="M1258.85,-190.993C1054.19,-222.224 212.978,-124.236 64.5999,-48.9585"/>
<polygon fill="lightgrey" stroke="lightgrey" points="65.9135,-45.6805 55.4855,-43.8073 62.4693,-51.7746 65.9135,-45.6805"/>
<text text-anchor="middle" x="576.607" y="-163.715" font-family="Times,serif" font-size="14.00">personLivesAtLocation</text>
</g>
<!-- person&#45;&gt;startDate -->
<g id="edge15" class="edge"><title>person&#45;&gt;startDate</title>
<path fill="none" stroke="lightgrey" d="M1236.77,-178.59C1007.17,-176.107 255.846,-89.1621 79.5124,-43.094"/>
<polygon fill="lightgrey" stroke="lightgrey" points="80.2376,-39.6636 69.6678,-40.3906 78.384,-46.4137 80.2376,-39.6636"/>
<text text-anchor="middle" x="582.155" y="-130.985" font-family="Times,serif" font-size="14.00">personKnowsPerson</text>
</g>
<!-- person&#45;&gt;startDate -->
<g id="edge16" class="edge"><title>person&#45;&gt;startDate</title>
<path fill="none" stroke="lightgrey" d="M1236.3,-163.12C1011.72,-137.454 291.676,-55.1628 93.2798,-32.489"/>
<polygon fill="lightgrey" stroke="lightgrey" points="93.4699,-28.988 83.1371,-31.3298 92.675,-35.9427 93.4699,-28.988"/>
<text text-anchor="middle" x="587.428" y="-100.477" font-family="Times,serif" font-size="14.00">personHasEmailAddress</text>
</g>
<!-- person&#45;&gt;startDate -->
<g id="edge17" class="edge"><title>person&#45;&gt;startDate</title>
<path fill="none" stroke="lightgrey" d="M1255.76,-151.718C1056.22,-103.714 292.416,-16.5098 91.1043,-18.879"/>
<polygon fill="lightgrey" stroke="lightgrey" points="90.7698,-15.3851 80.845,-19.0929 90.9158,-22.3836 90.7698,-15.3851"/>
<text text-anchor="middle" x="600.566" y="-69.8059" font-family="Times,serif" font-size="14.00">personWorksAtCompany</text>
</g>
<!-- organization&#45;&gt;Entity -->
<g id="edge18" class="edge"><title>organization&#45;&gt;Entity</title>
<path fill="none" stroke="black" d="M1811.52,-193.281C1931.43,-251.617 1971.38,-272.374 2009.17,-303.582"/>
<polygon fill="black" stroke="black" points="2007.33,-306.618 2017.22,-310.418 2011.86,-301.28 2007.33,-306.618"/>
</g>
<!-- organization&#45;&gt;location -->
<g id="edge19" class="edge"><title>organization&#45;&gt;location</title>
<path fill="none" stroke="lightgrey" d="M1855.24,-168.659C2060.09,-163.781 2132.64,-162.519 2205.64,-164.875"/>
<polygon fill="lightgrey" stroke="lightgrey" points="2205.85,-168.384 2215.96,-165.232 2206.09,-161.389 2205.85,-168.384"/>
<text text-anchor="middle" x="1999.89" y="-167.854" font-family="Times,serif" font-size="14.00">orgHeadquarteredAtLocation</text>
</g>
<!-- organization&#45;&gt;phoneNumber -->
<g id="edge20" class="edge"><title>organization&#45;&gt;phoneNumber</title>
<path fill="none" stroke="lightgrey" d="M1854.92,-169.239C2315.62,-161.142 2377.55,-160.646 2558.7,-167.751"/>
<polygon fill="lightgrey" stroke="lightgrey" points="2558.69,-171.253 2568.82,-168.151 2558.97,-164.259 2558.69,-171.253"/>
<text text-anchor="middle" x="2252.65" y="-166.594" font-family="Times,serif" font-size="14.00">orgHasPhoneNumber</text>
</g>
<!-- organization&#45;&gt;emailAddress -->
<g id="edge21" class="edge"><title>organization&#45;&gt;emailAddress</title>
<path fill="none" stroke="lightgrey" d="M1855.11,-169.515C2485.53,-160.377 2551.9,-159.931 2802.44,-168.177"/>
<polygon fill="lightgrey" stroke="lightgrey" points="2802.47,-171.68 2812.58,-168.512 2802.7,-164.684 2802.47,-171.68"/>
<text text-anchor="middle" x="2500.49" y="-151.127" font-family="Times,serif" font-size="14.00">orgHasEmailAddress</text>
</g>
<!-- organization&#45;&gt;endDate -->
<g id="edge22" class="edge"><title>organization&#45;&gt;endDate</title>
<path fill="none" stroke="lightgrey" d="M1798.56,-146.301C1812.8,-120.384 1821.02,-79.9839 1816.71,-53.2939"/>
<polygon fill="lightgrey" stroke="lightgrey" points="1820.08,-52.3439 1814.31,-43.4559 1813.28,-54 1820.08,-52.3439"/>
<text text-anchor="middle" x="1756.82" y="-99.9787" font-family="Times,serif" font-size="14.00">orgHasEmailAddress</text>
</g>
<!-- organization&#45;&gt;endDate -->
<g id="edge23" class="edge"><title>organization&#45;&gt;endDate</title>
<path fill="none" stroke="lightgrey" d="M1747.22,-144.9C1742.5,-117.403 1751.39,-74.8046 1766.58,-48.8119"/>
<polygon fill="lightgrey" stroke="lightgrey" points="1769.58,-50.6265 1772.21,-40.3625 1763.75,-46.7481 1769.58,-50.6265"/>
<text text-anchor="middle" x="1691.68" y="-79.4154" font-family="Times,serif" font-size="14.00">orgHasPhoneNumber</text>
</g>
<!-- organization&#45;&gt;endDate -->
<g id="edge24" class="edge"><title>organization&#45;&gt;endDate</title>
<path fill="none" stroke="lightgrey" d="M1771.3,-144.713C1777.15,-119.325 1786.03,-80.8773 1792.04,-54.8135"/>
<polygon fill="lightgrey" stroke="lightgrey" points="1795.51,-55.3432 1794.35,-44.8122 1788.69,-53.7691 1795.51,-55.3432"/>
<text text-anchor="middle" x="1862.82" y="-83.5534" font-family="Times,serif" font-size="14.00">orgHeadquarteredAtLocation</text>
</g>
<!-- organization&#45;&gt;startDate -->
<g id="edge25" class="edge"><title>organization&#45;&gt;startDate</title>
<path fill="none" stroke="lightgrey" d="M1701.98,-152.228C1426.63,-103.222 336.036,-12.5308 91.203,-19.1304"/>
<polygon fill="lightgrey" stroke="lightgrey" points="91.055,-15.6333 81.1814,-19.4754 91.2959,-22.6292 91.055,-15.6333"/>
<text text-anchor="middle" x="826.632" y="-68.6257" font-family="Times,serif" font-size="14.00">orgHasEmailAddress</text>
</g>
<!-- organization&#45;&gt;startDate -->
<g id="edge26" class="edge"><title>organization&#45;&gt;startDate</title>
<path fill="none" stroke="lightgrey" d="M1679.46,-178.665C1368.27,-177.04 305.786,-86.7759 83.3007,-41.014"/>
<polygon fill="lightgrey" stroke="lightgrey" points="83.8604,-37.5544 73.3474,-38.8691 82.3856,-44.3973 83.8604,-37.5544"/>
<text text-anchor="middle" x="789.11" y="-130.19" font-family="Times,serif" font-size="14.00">orgHasPhoneNumber</text>
</g>
<!-- organization&#45;&gt;startDate -->
<g id="edge27" class="edge"><title>organization&#45;&gt;startDate</title>
<path fill="none" stroke="lightgrey" d="M1678.94,-163.596C1371.87,-137.904 337.926,-51.3956 94.0793,-30.9934"/>
<polygon fill="lightgrey" stroke="lightgrey" points="94.3223,-27.5016 84.0653,-30.1555 93.7386,-34.4772 94.3223,-27.5016"/>
<text text-anchor="middle" x="782.793" y="-99.1105" font-family="Times,serif" font-size="14.00">orgHeadquarteredAtLocation</text>
</g>
<!-- location&#45;&gt;Entity -->
<g id="edge29" class="edge"><title>location&#45;&gt;Entity</title>
<path fill="none" stroke="black" d="M2309.15,-196.761C2267.3,-257.757 2248.52,-273.635 2145.49,-320.884"/>
<polygon fill="black" stroke="black" points="2143.91,-317.759 2136.27,-325.097 2146.82,-324.127 2143.91,-317.759"/>
</g>
<!-- phoneNumber&#45;&gt;Entity -->
<g id="edge30" class="edge"><title>phoneNumber&#45;&gt;Entity</title>
<path fill="none" stroke="black" d="M2607.43,-187.524C2480.17,-265.993 2450.88,-276.563 2157.03,-337.721"/>
<polygon fill="black" stroke="black" points="2155.99,-334.362 2146.91,-339.825 2157.42,-341.215 2155.99,-334.362"/>
</g>
<!-- emailAddress&#45;&gt;Entity -->
<g id="edge31" class="edge"><title>emailAddress&#45;&gt;Entity</title>
<path fill="none" stroke="black" d="M2835.51,-190.517C2649.9,-270.183 2606.74,-279.571 2158.85,-343.379"/>
<polygon fill="black" stroke="black" points="2158.28,-339.925 2148.87,-344.8 2159.26,-346.855 2158.28,-339.925"/>
</g>
<!-- Artifact&#45;&gt;Entity -->
<g id="edge32" class="edge"><title>Artifact&#45;&gt;Entity</title>
<path fill="none" stroke="lightgrey" d="M1123.34,-182.698C1250.17,-219.391 1759.36,-318.062 1972.02,-348.942"/>
<polygon fill="lightgrey" stroke="lightgrey" points="1971.53,-352.407 1981.92,-350.361 1972.52,-345.478 1971.53,-352.407"/>
<text text-anchor="middle" x="1524.93" y="-278.672" font-family="Times,serif" font-size="14.00">hasEntity</text>
</g>
</g>
</svg>
