<?xml version="1.0" encoding="UTF-8" standalone="no"?>
<!DOCTYPE svg PUBLIC "-//W3C//DTD SVG 1.1//EN"
 "http://www.w3.org/Graphics/SVG/1.1/DTD/svg11.dtd">
<!-- Generated by graphviz version 2.31.20130521.0446 (20130521.0446)
 -->
<!-- Title: %3 Pages: 1 -->
<svg width="5729pt" height="301pt"
 viewBox="0.00 0.00 5729.10 300.69" xmlns="http://www.w3.org/2000/svg" xmlns:xlink="http://www.w3.org/1999/xlink">
<g id="graph0" class="graph" transform="scale(1 1) rotate(0) translate(4 296.695)">
<title>%3</title>
<polygon fill="white" stroke="white" points="-4,5 -4,-296.695 5726.1,-296.695 5726.1,5 -4,5"/>
<!-- rootConcept -->
<g id="node1" class="node"><title>rootConcept</title>
<ellipse fill="none" stroke="black" cx="1855.5" cy="-252.035" rx="58.4896" ry="18"/>
<text text-anchor="start" x="1819" y="-249.335" font-family="Times,serif" font-weight="bold" font-size="14.00">rootConcept</text>
</g>
<!-- document -->
<g id="node2" class="node"><title>document</title>
<ellipse fill="none" stroke="black" cx="211.14" cy="-252.035" rx="48.9926" ry="18"/>
<text text-anchor="start" x="182.14" y="-249.335" font-family="Times,serif" font-weight="bold" font-size="14.00">document</text>
</g>
<!-- artifact -->
<g id="node11" class="node"><title>artifact</title>
<ellipse fill="none" stroke="black" cx="1388.82" cy="-56" rx="113" ry="56"/>
<text text-anchor="start" x="1367.32" y="-81.3" font-family="Times,serif" font-weight="bold" font-size="14.00">artifact</text>
<text text-anchor="start" x="1354.32" y="-67.3" font-family="Times,serif" font-size="14.00">_type: string</text>
<text text-anchor="start" x="1342.82" y="-53.3" font-family="Times,serif" font-size="14.00">_subType: string</text>
<text text-anchor="start" x="1358.82" y="-39.3" font-family="Times,serif" font-size="14.00">title: string</text>
<text text-anchor="start" x="1317.32" y="-25.3" font-family="Times,serif" font-size="14.00">geoLocation: geoLocation</text>
</g>
<!-- document&#45;&gt;artifact -->
<g id="edge3" class="edge"><title>document&#45;&gt;artifact</title>
<path fill="none" stroke="black" d="M250.631,-241.181C545.985,-160.119 589.467,-152.475 1268.94,-70.4548"/>
<polygon fill="black" stroke="black" points="1269.48,-73.9152 1278.99,-69.2421 1268.64,-66.9656 1269.48,-73.9152"/>
</g>
<!-- image -->
<g id="node3" class="node"><title>image</title>
<ellipse fill="none" stroke="black" cx="395.472" cy="-252.035" rx="34.394" ry="18"/>
<text text-anchor="start" x="377.472" y="-249.335" font-family="Times,serif" font-weight="bold" font-size="14.00">image</text>
</g>
<!-- image&#45;&gt;artifact -->
<g id="edge4" class="edge"><title>image&#45;&gt;artifact</title>
<path fill="none" stroke="black" d="M425.048,-242.34C673.923,-160.857 710.024,-152.843 1269.84,-72.9521"/>
<polygon fill="black" stroke="black" points="1270.39,-76.4094 1279.8,-71.532 1269.4,-69.4796 1270.39,-76.4094"/>
</g>
<!-- video -->
<g id="node4" class="node"><title>video</title>
<ellipse fill="none" stroke="black" cx="31.1972" cy="-252.035" rx="31.3957" ry="18"/>
<text text-anchor="start" x="15.6972" y="-249.335" font-family="Times,serif" font-weight="bold" font-size="14.00">video</text>
</g>
<!-- video&#45;&gt;artifact -->
<g id="edge5" class="edge"><title>video&#45;&gt;artifact</title>
<path fill="none" stroke="black" d="M60.1184,-245.165C419.226,-159.901 456.166,-153.875 1268.07,-68.6628"/>
<polygon fill="black" stroke="black" points="1268.68,-72.1179 1278.26,-67.5933 1267.95,-65.1562 1268.68,-72.1179"/>
</g>
<!-- company -->
<g id="node5" class="node"><title>company</title>
<ellipse fill="none" stroke="black" cx="4725.81" cy="-56" rx="91.8478" ry="26.3269"/>
<text text-anchor="start" x="4698.81" y="-60.3" font-family="Times,serif" font-weight="bold" font-size="14.00">company</text>
<text text-anchor="start" x="4669.31" y="-46.3" font-family="Times,serif" font-size="14.00">netIncome: currency</text>
</g>
<!-- organization -->
<g id="node7" class="node"><title>organization</title>
<ellipse fill="none" stroke="black" cx="3918.26" cy="-252.035" rx="89.6056" ry="26.3269"/>
<text text-anchor="start" x="3881.76" y="-256.335" font-family="Times,serif" font-weight="bold" font-size="14.00">organization</text>
<text text-anchor="start" x="3863.26" y="-242.335" font-family="Times,serif" font-size="14.00">formationDate: date</text>
</g>
<!-- company&#45;&gt;organization -->
<g id="edge34" class="edge"><title>company&#45;&gt;organization</title>
<path fill="none" stroke="black" d="M4674.09,-77.6382C4495.86,-151.684 4449.02,-162.178 4005.91,-237.213"/>
<polygon fill="black" stroke="black" points="4005.31,-233.764 3996.04,-238.884 4006.48,-240.666 4005.31,-233.764"/>
</g>
<!-- person -->
<g id="node6" class="node"><title>person</title>
<ellipse fill="none" stroke="black" cx="3233.6" cy="-252.035" rx="70.0071" ry="26.3269"/>
<text text-anchor="start" x="3213.6" y="-256.335" font-family="Times,serif" font-weight="bold" font-size="14.00">person</text>
<text text-anchor="start" x="3192.6" y="-242.335" font-family="Times,serif" font-size="14.00">birthDate: date</text>
</g>
<!-- person&#45;&gt;company -->
<g id="edge10" class="edge"><title>person&#45;&gt;company</title>
<path fill="none" stroke="lightgrey" d="M3301.85,-245.907C4215.68,-163.837 4284.98,-156.439 4644.08,-74.6924"/>
<polygon fill="lightgrey" stroke="lightgrey" points="4645,-78.0724 4653.97,-72.4383 4643.45,-71.2473 4645,-78.0724"/>
<text text-anchor="middle" x="4110.99" y="-163.978" font-family="Times,serif" font-size="14.00">personWorksAtCompany</text>
</g>
<!-- person&#45;&gt;person -->
<g id="edge9" class="edge"><title>person&#45;&gt;person</title>
<path fill="none" stroke="lightgrey" d="M3289.99,-267.545C3319.69,-270.055 3346.6,-264.885 3346.6,-252.035 3346.6,-240.692 3325.63,-235.333 3300.28,-235.96"/>
<polygon fill="lightgrey" stroke="lightgrey" points="3299.79,-232.481 3289.99,-236.525 3300.17,-239.471 3299.79,-232.481"/>
<text text-anchor="middle" x="3402.6" y="-248.335" font-family="Times,serif" font-size="14.00">personKnowsPerson</text>
</g>
<!-- location -->
<g id="node8" class="node"><title>location</title>
<ellipse fill="none" stroke="black" cx="5607.96" cy="-252.035" rx="113.274" ry="26.3269"/>
<text text-anchor="start" x="5584.96" y="-256.335" font-family="Times,serif" font-weight="bold" font-size="14.00">location</text>
<text text-anchor="start" x="5536.46" y="-242.335" font-family="Times,serif" font-size="14.00">geoLocation: geoLocation</text>
</g>
<!-- person&#45;&gt;location -->
<g id="edge11" class="edge"><title>person&#45;&gt;location</title>
<path fill="none" stroke="lightgrey" d="M3303.75,-253.483C4797.96,-284.319 4897.56,-285.765 5486.99,-257.823"/>
<polygon fill="lightgrey" stroke="lightgrey" points="5487.2,-261.317 5497.03,-257.347 5486.87,-254.325 5487.2,-261.317"/>
<text text-anchor="middle" x="4670.67" y="-281.495" font-family="Times,serif" font-size="14.00">personLivesAtLocation</text>
</g>
<!-- phoneNumber -->
<g id="node9" class="node"><title>phoneNumber</title>
<ellipse fill="none" stroke="black" cx="5283.19" cy="-252.035" rx="66.0889" ry="18"/>
<text text-anchor="start" x="5240.69" y="-249.335" font-family="Times,serif" font-weight="bold" font-size="14.00">phoneNumber</text>
</g>
<!-- person&#45;&gt;phoneNumber -->
<g id="edge12" class="edge"><title>person&#45;&gt;phoneNumber</title>
<path fill="none" stroke="lightgrey" d="M3303.56,-253.646C4608.21,-283.681 4673.78,-284.487 5207.79,-256.066"/>
<polygon fill="lightgrey" stroke="lightgrey" points="5208.29,-259.545 5218.09,-255.518 5207.91,-252.555 5208.29,-259.545"/>
<text text-anchor="middle" x="4476.67" y="-280.577" font-family="Times,serif" font-size="14.00">personHasPhoneNumber</text>
</g>
<!-- emailAddress -->
<g id="node10" class="node"><title>emailAddress</title>
<ellipse fill="none" stroke="black" cx="5031.56" cy="-252.035" rx="63.0888" ry="18"/>
<text text-anchor="start" x="4991.56" y="-249.335" font-family="Times,serif" font-weight="bold" font-size="14.00">emailAddress</text>
</g>
<!-- person&#45;&gt;emailAddress -->
<g id="edge13" class="edge"><title>person&#45;&gt;emailAddress</title>
<path fill="none" stroke="lightgrey" d="M3303.62,-253.806C4434.49,-282.398 4497.38,-283.222 4959.22,-256.279"/>
<polygon fill="lightgrey" stroke="lightgrey" points="4959.73,-259.755 4969.51,-255.678 4959.32,-252.767 4959.73,-259.755"/>
<text text-anchor="middle" x="4314.81" y="-279.668" font-family="Times,serif" font-size="14.00">personHasEmailAddress</text>
</g>
<!-- entity -->
<g id="node12" class="node"><title>entity</title>
<ellipse fill="none" stroke="black" cx="5107.64" cy="-56" rx="84.788" ry="56"/>
<text text-anchor="start" x="5090.64" y="-81.3" font-family="Times,serif" font-weight="bold" font-size="14.00">entity</text>
<text text-anchor="start" x="5061.64" y="-67.3" font-family="Times,serif" font-size="14.00">_subType: string</text>
<text text-anchor="start" x="5077.64" y="-53.3" font-family="Times,serif" font-size="14.00">title: string</text>
<text text-anchor="start" x="5056.14" y="-39.3" font-family="Times,serif" font-size="14.00">_glyphIcon: image</text>
<text text-anchor="start" x="5073.14" y="-25.3" font-family="Times,serif" font-size="14.00">_type: string</text>
</g>
<!-- person&#45;&gt;entity -->
<g id="edge8" class="edge"><title>person&#45;&gt;entity</title>
<path fill="none" stroke="black" d="M3302.6,-247.112C4474.52,-163.492 4552.02,-156.996 5015.95,-72.7166"/>
<polygon fill="black" stroke="black" points="5016.72,-76.1339 5025.93,-70.9018 5015.47,-69.2467 5016.72,-76.1339"/>
</g>
<!-- endDate -->
<g id="node13" class="node"><title>endDate</title>
<ellipse fill="none" stroke="black" cx="3233.6" cy="-56" rx="40.0939" ry="18"/>
<text text-anchor="middle" x="3233.6" y="-52.3" font-family="Times,serif" font-size="14.00">endDate</text>
</g>
<!-- person&#45;&gt;endDate -->
<g id="edge14" class="edge"><title>person&#45;&gt;endDate</title>
<path fill="none" stroke="lightgrey" d="M3275.66,-230.683C3306.46,-191.865 3305.55,-110.396 3272.91,-74.1072"/>
<polygon fill="lightgrey" stroke="lightgrey" points="3275.14,-71.3989 3265.47,-67.0809 3270.34,-76.4898 3275.14,-71.3989"/>
<text text-anchor="middle" x="3227.99" y="-136.762" font-family="Times,serif" font-size="14.00">personWorksAtCompany</text>
</g>
<!-- person&#45;&gt;endDate -->
<g id="edge15" class="edge"><title>person&#45;&gt;endDate</title>
<path fill="none" stroke="lightgrey" d="M3191.54,-230.683C3160.73,-191.865 3161.64,-110.396 3194.28,-74.1072"/>
<polygon fill="lightgrey" stroke="lightgrey" points="3196.85,-76.4898 3201.72,-67.0809 3192.05,-71.3989 3196.85,-76.4898"/>
<text text-anchor="middle" x="3101.71" y="-151.762" font-family="Times,serif" font-size="14.00">personHasEmailAddress</text>
</g>
<!-- person&#45;&gt;endDate -->
<g id="edge16" class="edge"><title>person&#45;&gt;endDate</title>
<path fill="none" stroke="lightgrey" d="M3211.27,-227.207C3198.1,-189.755 3198.04,-119.181 3211.07,-81.3965"/>
<polygon fill="lightgrey" stroke="lightgrey" points="3214.33,-82.6801 3214.88,-72.0996 3207.85,-80.0272 3214.33,-82.6801"/>
<text text-anchor="middle" x="3257.37" y="-153.473" font-family="Times,serif" font-size="14.00">personKnowsPerson</text>
</g>
<!-- person&#45;&gt;endDate -->
<g id="edge17" class="edge"><title>person&#45;&gt;endDate</title>
<path fill="none" stroke="lightgrey" d="M3233.6,-225.597C3233.6,-188.785 3233.6,-122.357 3233.6,-84.4833"/>
<polygon fill="lightgrey" stroke="lightgrey" points="3237.1,-84.1582 3233.6,-74.1582 3230.1,-84.1582 3237.1,-84.1582"/>
<text text-anchor="middle" x="3297.6" y="-138.767" font-family="Times,serif" font-size="14.00">personLivesAtLocation</text>
</g>
<!-- person&#45;&gt;endDate -->
<g id="edge18" class="edge"><title>person&#45;&gt;endDate</title>
<path fill="none" stroke="lightgrey" d="M3255.92,-227.207C3269.09,-189.755 3269.15,-119.181 3256.12,-81.3965"/>
<polygon fill="lightgrey" stroke="lightgrey" points="3259.34,-80.0272 3252.31,-72.0996 3252.86,-82.6801 3259.34,-80.0272"/>
<text text-anchor="middle" x="3333.82" y="-153.473" font-family="Times,serif" font-size="14.00">personHasPhoneNumber</text>
</g>
<!-- startDate -->
<g id="node14" class="node"><title>startDate</title>
<ellipse fill="none" stroke="black" cx="1678.48" cy="-56" rx="42.4939" ry="18"/>
<text text-anchor="middle" x="1678.48" y="-52.3" font-family="Times,serif" font-size="14.00">startDate</text>
</g>
<!-- person&#45;&gt;startDate -->
<g id="edge19" class="edge"><title>person&#45;&gt;startDate</title>
<path fill="none" stroke="lightgrey" d="M3204.34,-228.131C3011.47,-144.225 1925.73,-7.22653 1714.16,-39.8834"/>
<polygon fill="lightgrey" stroke="lightgrey" points="1713.42,-36.4605 1704.2,-41.6834 1714.66,-43.3489 1713.42,-36.4605"/>
<text text-anchor="middle" x="2390.13" y="-93.3237" font-family="Times,serif" font-size="14.00">personWorksAtCompany</text>
</g>
<!-- person&#45;&gt;startDate -->
<g id="edge20" class="edge"><title>person&#45;&gt;startDate</title>
<path fill="none" stroke="lightgrey" d="M3182.75,-270.059C2936.89,-295.051 1877.13,-159.513 1702.75,-77.6541"/>
<polygon fill="lightgrey" stroke="lightgrey" points="1704.32,-74.5235 1693.82,-73.0704 1701.12,-80.7509 1704.32,-74.5235"/>
<text text-anchor="middle" x="2348.43" y="-217.724" font-family="Times,serif" font-size="14.00">personHasEmailAddress</text>
</g>
<!-- person&#45;&gt;startDate -->
<g id="edge21" class="edge"><title>person&#45;&gt;startDate</title>
<path fill="none" stroke="lightgrey" d="M3165.01,-257.611C2896.59,-249.122 1922.2,-125.284 1716.69,-72.0153"/>
<polygon fill="lightgrey" stroke="lightgrey" points="1717.51,-68.6123 1706.94,-69.3787 1715.68,-75.3693 1717.51,-68.6123"/>
<text text-anchor="middle" x="2361.24" y="-185.404" font-family="Times,serif" font-size="14.00">personKnowsPerson</text>
</g>
<!-- person&#45;&gt;startDate -->
<g id="edge22" class="edge"><title>person&#45;&gt;startDate</title>
<path fill="none" stroke="lightgrey" d="M3166.77,-243.612C2905.97,-210.736 1959.63,-91.4418 1729.28,-62.4044"/>
<polygon fill="lightgrey" stroke="lightgrey" points="1729.54,-58.9084 1719.18,-61.1302 1728.66,-65.8535 1729.54,-58.9084"/>
<text text-anchor="middle" x="2372.58" y="-155.365" font-family="Times,serif" font-size="14.00">personLivesAtLocation</text>
</g>
<!-- person&#45;&gt;startDate -->
<g id="edge23" class="edge"><title>person&#45;&gt;startDate</title>
<path fill="none" stroke="lightgrey" d="M3184.3,-233.255C2951.49,-177.244 1963.87,-52.8249 1728.82,-50.0136"/>
<polygon fill="lightgrey" stroke="lightgrey" points="1728.54,-46.5125 1718.52,-49.9708 1728.51,-53.5124 1728.54,-46.5125"/>
<text text-anchor="middle" x="2386.27" y="-125.09" font-family="Times,serif" font-size="14.00">personHasPhoneNumber</text>
</g>
<!-- organization&#45;&gt;location -->
<g id="edge25" class="edge"><title>organization&#45;&gt;location</title>
<path fill="none" stroke="lightgrey" d="M4008.1,-253.557C5003.14,-270.394 5102.73,-271.479 5485.85,-256.81"/>
<polygon fill="lightgrey" stroke="lightgrey" points="5486.25,-260.297 5496.11,-256.416 5485.98,-253.302 5486.25,-260.297"/>
<text text-anchor="middle" x="4871.95" y="-270.798" font-family="Times,serif" font-size="14.00">organizationHeadquarteredAtLocation</text>
</g>
<!-- organization&#45;&gt;phoneNumber -->
<g id="edge26" class="edge"><title>organization&#45;&gt;phoneNumber</title>
<path fill="none" stroke="lightgrey" d="M4007.97,-253.696C4814.91,-268.612 4880.75,-269.142 5207.43,-255.285"/>
<polygon fill="lightgrey" stroke="lightgrey" points="5207.83,-258.772 5217.67,-254.85 5207.53,-251.778 5207.83,-258.772"/>
<text text-anchor="middle" x="4871.8" y="-254.08" font-family="Times,serif" font-size="14.00">organizationHasPhoneNumber</text>
</g>
<!-- organization&#45;&gt;emailAddress -->
<g id="edge27" class="edge"><title>organization&#45;&gt;emailAddress</title>
<path fill="none" stroke="lightgrey" d="M4007.86,-253.822C4641.61,-266.436 4703.85,-266.956 4958.96,-255.383"/>
<polygon fill="lightgrey" stroke="lightgrey" points="4959.46,-258.864 4969.29,-254.913 4959.14,-251.872 4959.46,-258.864"/>
<text text-anchor="middle" x="4542.4" y="-252.473" font-family="Times,serif" font-size="14.00">organizationHasEmailAddress</text>
</g>
<!-- organization&#45;&gt;entity -->
<g id="edge24" class="edge"><title>organization&#45;&gt;entity</title>
<path fill="none" stroke="black" d="M4001.93,-242.438C4684.28,-164.127 4757.6,-154.078 5019.87,-80.7646"/>
<polygon fill="black" stroke="black" points="5021,-84.0842 5029.68,-78.0174 5019.11,-77.3434 5021,-84.0842"/>
</g>
<!-- organization&#45;&gt;endDate -->
<g id="edge28" class="edge"><title>organization&#45;&gt;endDate</title>
<path fill="none" stroke="lightgrey" d="M3887.55,-227.407C3779.29,-173.414 3416.06,-68.8119 3282.91,-52.4768"/>
<polygon fill="lightgrey" stroke="lightgrey" points="3282.93,-48.9581 3272.61,-51.3466 3282.17,-55.9163 3282.93,-48.9581"/>
<text text-anchor="middle" x="3480.13" y="-126.765" font-family="Times,serif" font-size="14.00">organizationHeadquarteredAtLocation</text>
</g>
<!-- organization&#45;&gt;endDate -->
<g id="edge29" class="edge"><title>organization&#45;&gt;endDate</title>
<path fill="none" stroke="lightgrey" d="M3828.59,-249.256C3670.36,-220.546 3350.02,-126.027 3258.42,-77.6138"/>
<polygon fill="lightgrey" stroke="lightgrey" points="3260.01,-74.4907 3249.57,-72.652 3256.58,-80.5961 3260.01,-74.4907"/>
<text text-anchor="middle" x="3435.51" y="-174.621" font-family="Times,serif" font-size="14.00">organizationHasEmailAddress</text>
</g>
<!-- organization&#45;&gt;endDate -->
<g id="edge30" class="edge"><title>organization&#45;&gt;endDate</title>
<path fill="none" stroke="lightgrey" d="M3854.15,-233.681C3716.39,-194.235 3395.08,-102.237 3277.61,-68.603"/>
<polygon fill="lightgrey" stroke="lightgrey" points="3278.45,-65.2015 3267.87,-65.8136 3276.52,-71.9311 3278.45,-65.2015"/>
<text text-anchor="middle" x="3642.23" y="-152.751" font-family="Times,serif" font-size="14.00">organizationHasPhoneNumber</text>
</g>
<!-- organization&#45;&gt;startDate -->
<g id="edge31" class="edge"><title>organization&#45;&gt;startDate</title>
<path fill="none" stroke="lightgrey" d="M3852.27,-234.243C3518.9,-177.419 2024.39,-47.126 1729.21,-49.965"/>
<polygon fill="lightgrey" stroke="lightgrey" points="1728.76,-46.4716 1718.82,-50.1316 1728.87,-53.4707 1728.76,-46.4716"/>
<text text-anchor="middle" x="2671.9" y="-123.528" font-family="Times,serif" font-size="14.00">organizationHeadquarteredAtLocation</text>
</g>
<!-- organization&#45;&gt;startDate -->
<g id="edge32" class="edge"><title>organization&#45;&gt;startDate</title>
<path fill="none" stroke="lightgrey" d="M3830.65,-257.861C3455.5,-251.358 1991.25,-121.988 1721.36,-69.6102"/>
<polygon fill="lightgrey" stroke="lightgrey" points="1721.69,-66.1048 1711.19,-67.5526 1720.3,-72.9659 1721.69,-66.1048"/>
<text text-anchor="middle" x="2653.52" y="-184.738" font-family="Times,serif" font-size="14.00">organizationHasEmailAddress</text>
</g>
<!-- organization&#45;&gt;startDate -->
<g id="edge33" class="edge"><title>organization&#45;&gt;startDate</title>
<path fill="none" stroke="lightgrey" d="M3832.17,-244.501C3463.46,-212.229 2022.97,-86.1515 1730.47,-60.5505"/>
<polygon fill="lightgrey" stroke="lightgrey" points="1730.42,-57.0331 1720.16,-59.6478 1729.81,-64.0064 1730.42,-57.0331"/>
<text text-anchor="middle" x="2668.73" y="-153.823" font-family="Times,serif" font-size="14.00">organizationHasPhoneNumber</text>
</g>
<!-- location&#45;&gt;entity -->
<g id="edge35" class="edge"><title>location&#45;&gt;entity</title>
<path fill="none" stroke="black" d="M5571.18,-227.054C5472.97,-161.077 5438.56,-147.719 5195.97,-80.4113"/>
<polygon fill="black" stroke="black" points="5196.71,-76.9835 5186.14,-77.6845 5194.84,-83.7291 5196.71,-76.9835"/>
</g>
<!-- phoneNumber&#45;&gt;entity -->
<g id="edge36" class="edge"><title>phoneNumber&#45;&gt;entity</title>
<path fill="none" stroke="black" d="M5276.69,-234.061C5253.42,-170.318 5243.23,-153.477 5173.97,-102.98"/>
<polygon fill="black" stroke="black" points="5175.85,-100.019 5165.7,-96.9875 5171.75,-105.688 5175.85,-100.019"/>
</g>
<!-- emailAddress&#45;&gt;entity -->
<g id="edge37" class="edge"><title>emailAddress&#45;&gt;entity</title>
<path fill="none" stroke="black" d="M5046.07,-234.303C5090.98,-179.231 5105.01,-159.097 5108.19,-122.331"/>
<polygon fill="black" stroke="black" points="5111.7,-122.228 5108.8,-112.039 5104.72,-121.816 5111.7,-122.228"/>
</g>
<!-- artifact&#45;&gt;rootConcept -->
<g id="edge1" class="edge"><title>artifact&#45;&gt;rootConcept</title>
<path fill="none" stroke="black" d="M1451.98,-102.445C1527.08,-154.782 1576.28,-171.1 1802.91,-236.812"/>
<polygon fill="black" stroke="black" points="1802.21,-240.252 1812.79,-239.674 1804.16,-233.529 1802.21,-240.252"/>
</g>
<!-- artifact&#45;&gt;entity -->
<g id="edge2" class="edge"><title>artifact&#45;&gt;entity</title>
<path fill="none" stroke="lightgrey" d="M1501.38,-61.8769C2056.91,-75.1897 4500.07,-75.0394 5012.97,-61.4259"/>
<polygon fill="lightgrey" stroke="lightgrey" points="5013.38,-64.9159 5023.28,-61.1429 5013.19,-57.9186 5013.38,-64.9159"/>
<text text-anchor="middle" x="3299.18" y="-75.5487" font-family="Times,serif" font-size="14.00">hasEntity</text>
</g>
<!-- entity&#45;&gt;rootConcept -->
<g id="edge6" class="edge"><title>entity&#45;&gt;rootConcept</title>
<path fill="none" stroke="black" d="M5024.06,-65.7417C4140.32,-168.654 4067.43,-172.03 1923.92,-249.561"/>
<polygon fill="black" stroke="black" points="1923.55,-246.072 1913.68,-249.931 1923.8,-253.067 1923.55,-246.072"/>
</g>
<!-- entity&#45;&gt;artifact -->
<g id="edge7" class="edge"><title>entity&#45;&gt;artifact</title>
<path fill="none" stroke="lightgrey" d="M5022.98,-50.6031C4535.68,-36.1436 2090.05,-35.807 1511.6,-49.5934"/>
<polygon fill="lightgrey" stroke="lightgrey" points="1511.48,-46.0952 1501.56,-49.8386 1511.65,-53.0931 1511.48,-46.0952"/>
<text text-anchor="middle" x="3288.97" y="-28.3004" font-family="Times,serif" font-size="14.00">hasImage</text>
</g>
</g>
</svg>
