<?xml version="1.0" encoding="UTF-8" standalone="no"?>
<!DOCTYPE svg PUBLIC "-//W3C//DTD SVG 1.1//EN"
 "http://www.w3.org/Graphics/SVG/1.1/DTD/svg11.dtd">
<!-- Generated by graphviz version 2.31.20130521.0446 (20130521.0446)
 -->
<!-- Title: %3 Pages: 1 -->
<svg width="2177pt" height="463pt"
 viewBox="0.00 0.00 2176.56 462.94" xmlns="http://www.w3.org/2000/svg" xmlns:xlink="http://www.w3.org/1999/xlink">
<g id="graph0" class="graph" transform="scale(1 1) rotate(0) translate(4 458.939)">
<title>%3</title>
<polygon fill="white" stroke="white" points="-4,5 -4,-458.939 2173.56,-458.939 2173.56,5 -4,5"/>
<!-- Entity -->
<g id="node1" class="node"><title>Entity</title>
<ellipse fill="none" stroke="black" cx="977.457" cy="-398.939" rx="84.788" ry="56"/>
<text text-anchor="start" x="958.957" y="-424.239" font-family="Times,serif" font-weight="bold" font-size="14.00">Entity</text>
<text text-anchor="start" x="925.957" y="-410.239" font-family="Times,serif" font-size="14.00">_glyphIcon: image</text>
<text text-anchor="start" x="947.457" y="-396.239" font-family="Times,serif" font-size="14.00">title: string</text>
<text text-anchor="start" x="931.457" y="-382.239" font-family="Times,serif" font-size="14.00">_subType: string</text>
<text text-anchor="start" x="942.957" y="-368.239" font-family="Times,serif" font-size="14.00">_type: string</text>
</g>
<!-- Artifact -->
<g id="node8" class="node"><title>Artifact</title>
<ellipse fill="none" stroke="black" cx="117.678" cy="-202.669" rx="38.1938" ry="18"/>
<text text-anchor="middle" x="117.678" y="-198.969" font-family="Times,serif" font-size="14.00">Artifact</text>
</g>
<!-- Entity&#45;&gt;Artifact -->
<g id="edge1" class="edge"><title>Entity&#45;&gt;Artifact</title>
<path fill="none" stroke="lightgrey" d="M894.233,-388.047C399.647,-323.203 362.691,-314.924 154.778,-219.715"/>
<polygon fill="lightgrey" stroke="lightgrey" points="155.939,-216.397 145.39,-215.411 153.022,-222.76 155.939,-216.397"/>
<text text-anchor="middle" x="390.501" y="-319.067" font-family="Times,serif" font-size="14.00">hasImage</text>
</g>
<!-- Company -->
<g id="node2" class="node"><title>Company</title>
<ellipse fill="none" stroke="black" cx="1494.5" cy="-50.343" rx="91.8478" ry="26.3269"/>
<text text-anchor="start" x="1465.5" y="-54.643" font-family="Times,serif" font-weight="bold" font-size="14.00">Company</text>
<text text-anchor="start" x="1438" y="-40.643" font-family="Times,serif" font-size="14.00">netIncome: currency</text>
</g>
<!-- Organization -->
<g id="node4" class="node"><title>Organization</title>
<ellipse fill="none" stroke="black" cx="715.276" cy="-202.669" rx="89.6056" ry="26.3269"/>
<text text-anchor="start" x="676.276" y="-206.969" font-family="Times,serif" font-weight="bold" font-size="14.00">Organization</text>
<text text-anchor="start" x="660.276" y="-192.969" font-family="Times,serif" font-size="14.00">formationDate: date</text>
</g>
<!-- Company&#45;&gt;Organization -->
<g id="edge12" class="edge"><title>Company&#45;&gt;Organization</title>
<path fill="none" stroke="black" d="M1419.72,-35.093C1107.24,27.788 1071.37,17.4934 762.505,-173.419"/>
<polygon fill="black" stroke="black" points="760.42,-170.593 753.756,-178.83 764.102,-176.546 760.42,-170.593"/>
</g>
<!-- Location -->
<g id="node5" class="node"><title>Location</title>
<ellipse fill="none" stroke="black" cx="1494.5" cy="-202.669" rx="113.274" ry="26.3269"/>
<text text-anchor="start" x="1468.5" y="-206.969" font-family="Times,serif" font-weight="bold" font-size="14.00">Location</text>
<text text-anchor="start" x="1423" y="-192.969" font-family="Times,serif" font-size="14.00">geoLocation: geoLocation</text>
</g>
<!-- Company&#45;&gt;Location -->
<g id="edge13" class="edge"><title>Company&#45;&gt;Location</title>
<path fill="none" stroke="lightgrey" d="M1505.54,-76.4662C1519.84,-111.893 1520.25,-125.617 1506.79,-166.911"/>
<polygon fill="lightgrey" stroke="lightgrey" points="1503.45,-165.872 1503.6,-176.466 1510.09,-168.087 1503.45,-165.872"/>
<text text-anchor="middle" x="1470.77" y="-116.366" font-family="Times,serif" font-size="14.00">headquarteredAt</text>
</g>
<!-- Phone Number -->
<g id="node6" class="node"><title>Phone Number</title>
<ellipse fill="none" stroke="black" cx="1824.05" cy="-202.669" rx="68.7879" ry="18"/>
<text text-anchor="start" x="1779.55" y="-199.969" font-family="Times,serif" font-weight="bold" font-size="14.00">Phone Number</text>
</g>
<!-- Company&#45;&gt;Phone Number -->
<g id="edge14" class="edge"><title>Company&#45;&gt;Phone Number</title>
<path fill="none" stroke="lightgrey" d="M1561.73,-68.3441C1712.62,-109.143 1736.51,-120.368 1798.4,-178.283"/>
<polygon fill="lightgrey" stroke="lightgrey" points="1796.05,-180.883 1805.73,-185.192 1800.85,-175.787 1796.05,-180.883"/>
<text text-anchor="middle" x="1664.95" y="-120.698" font-family="Times,serif" font-size="14.00">hasPhoneNumber</text>
</g>
<!-- Email Address -->
<g id="node7" class="node"><title>Email Address</title>
<ellipse fill="none" stroke="black" cx="2095.02" cy="-202.669" rx="73.5782" ry="26.3269"/>
<text text-anchor="start" x="2051.52" y="-206.969" font-family="Times,serif" font-weight="bold" font-size="14.00">Email Address</text>
<text text-anchor="start" x="2059.52" y="-192.969" font-family="Times,serif" font-size="14.00">active: string</text>
</g>
<!-- Company&#45;&gt;Email Address -->
<g id="edge15" class="edge"><title>Company&#45;&gt;Email Address</title>
<path fill="none" stroke="lightgrey" d="M1577.36,-61.7357C1880.31,-103.585 1923.14,-113.092 2044.95,-176.273"/>
<polygon fill="lightgrey" stroke="lightgrey" points="2043.37,-179.399 2053.86,-180.916 2046.61,-173.191 2043.37,-179.399"/>
<text text-anchor="middle" x="1831.08" y="-114.806" font-family="Times,serif" font-size="14.00">hasEmailAddress</text>
</g>
<!-- Person -->
<g id="node3" class="node"><title>Person</title>
<ellipse fill="none" stroke="black" cx="338.848" cy="-202.669" rx="70.0071" ry="26.3269"/>
<text text-anchor="start" x="318.848" y="-206.969" font-family="Times,serif" font-weight="bold" font-size="14.00">Person</text>
<text text-anchor="start" x="297.848" y="-192.969" font-family="Times,serif" font-size="14.00">birthDate: date</text>
</g>
<!-- Person&#45;&gt;Entity -->
<g id="edge2" class="edge"><title>Person&#45;&gt;Entity</title>
<path fill="none" stroke="black" d="M374.371,-225.241C516.217,-314.804 551.423,-325.93 885.442,-383.23"/>
<polygon fill="black" stroke="black" points="884.964,-386.699 895.412,-384.939 886.147,-379.8 884.964,-386.699"/>
</g>
<!-- Person&#45;&gt;Company -->
<g id="edge4" class="edge"><title>Person&#45;&gt;Company</title>
<path fill="none" stroke="lightgrey" d="M381.395,-181.702C695.175,-27.4832 737.145,-21.3083 1393.09,-46.4219"/>
<polygon fill="lightgrey" stroke="lightgrey" points="1393.15,-49.9268 1403.28,-46.8126 1393.42,-42.932 1393.15,-49.9268"/>
<text text-anchor="middle" x="865.962" y="-40.4429" font-family="Times,serif" font-size="14.00">worksAt</text>
</g>
<!-- Person&#45;&gt;Person -->
<g id="edge3" class="edge"><title>Person&#45;&gt;Person</title>
<path fill="none" stroke="lightgrey" d="M395.247,-218.179C424.942,-220.688 451.851,-215.519 451.851,-202.669 451.851,-191.325 430.879,-185.966 405.533,-186.593"/>
<polygon fill="lightgrey" stroke="lightgrey" points="405.039,-183.115 395.247,-187.159 405.424,-190.104 405.039,-183.115"/>
<text text-anchor="middle" x="469.851" y="-198.969" font-family="Times,serif" font-size="14.00">knows</text>
</g>
<!-- Person&#45;&gt;Location -->
<g id="edge5" class="edge"><title>Person&#45;&gt;Location</title>
<path fill="none" stroke="lightgrey" d="M407.596,-196.985C675.087,-175.158 737.308,-175.59 1372.13,-198.281"/>
<polygon fill="lightgrey" stroke="lightgrey" points="1372.34,-201.791 1382.46,-198.651 1372.59,-194.796 1372.34,-201.791"/>
<text text-anchor="middle" x="875.236" y="-186.715" font-family="Times,serif" font-size="14.00">livesAt</text>
</g>
<!-- Person&#45;&gt;Phone Number -->
<g id="edge6" class="edge"><title>Person&#45;&gt;Phone Number</title>
<path fill="none" stroke="lightgrey" d="M389.352,-184.453C838.327,-22.9112 879.777,-24.8233 1757.83,-190.189"/>
<polygon fill="lightgrey" stroke="lightgrey" points="1757.39,-193.669 1767.87,-192.081 1758.69,-186.79 1757.39,-193.669"/>
<text text-anchor="middle" x="1042.66" y="-80.5589" font-family="Times,serif" font-size="14.00">hasPhoneNumber</text>
</g>
<!-- Person&#45;&gt;Email Address -->
<g id="edge7" class="edge"><title>Person&#45;&gt;Email Address</title>
<path fill="none" stroke="lightgrey" d="M408.075,-198.047C1499.05,-125.241 1564.82,-122.846 2017.03,-190.862"/>
<polygon fill="lightgrey" stroke="lightgrey" points="2016.69,-194.35 2027.1,-192.379 2017.73,-187.429 2016.69,-194.35"/>
<text text-anchor="middle" x="1404.09" y="-145.446" font-family="Times,serif" font-size="14.00">hasEmailAddress</text>
</g>
<!-- Organization&#45;&gt;Entity -->
<g id="edge8" class="edge"><title>Organization&#45;&gt;Entity</title>
<path fill="none" stroke="black" d="M730.596,-228.585C774.882,-302.646 792.546,-319.909 896.488,-364.892"/>
<polygon fill="black" stroke="black" points="895.23,-368.161 905.799,-368.898 897.996,-361.731 895.23,-368.161"/>
</g>
<!-- Organization&#45;&gt;Location -->
<g id="edge9" class="edge"><title>Organization&#45;&gt;Location</title>
<path fill="none" stroke="lightgrey" d="M765.695,-180.834C1039.8,-62.6783 1075.86,-61.6585 1420.89,-177.775"/>
<polygon fill="lightgrey" stroke="lightgrey" points="1419.81,-181.104 1430.4,-180.979 1422.04,-174.47 1419.81,-181.104"/>
<text text-anchor="middle" x="1060.48" y="-96.961" font-family="Times,serif" font-size="14.00">headquarteredAt</text>
</g>
<!-- Organization&#45;&gt;Phone Number -->
<g id="edge10" class="edge"><title>Organization&#45;&gt;Phone Number</title>
<path fill="none" stroke="lightgrey" d="M804.267,-198.685C1432.01,-170.63 1495.25,-169.402 1749.27,-195.001"/>
<polygon fill="lightgrey" stroke="lightgrey" points="1749.25,-198.517 1759.55,-196.041 1749.96,-191.552 1749.25,-198.517"/>
<text text-anchor="middle" x="1368.42" y="-165.523" font-family="Times,serif" font-size="14.00">hasPhoneNumber</text>
</g>
<!-- Organization&#45;&gt;Email Address -->
<g id="edge11" class="edge"><title>Organization&#45;&gt;Email Address</title>
<path fill="none" stroke="lightgrey" d="M804.933,-200.502C1615.91,-180.92 1686.78,-180.094 2011.94,-198.025"/>
<polygon fill="lightgrey" stroke="lightgrey" points="2011.96,-201.531 2022.13,-198.588 2012.34,-194.542 2011.96,-201.531"/>
<text text-anchor="middle" x="1638.62" y="-173.996" font-family="Times,serif" font-size="14.00">hasEmailAddress</text>
</g>
<!-- Location&#45;&gt;Entity -->
<g id="edge16" class="edge"><title>Location&#45;&gt;Entity</title>
<path fill="none" stroke="black" d="M1467.34,-228.317C1344.05,-344.155 1315.6,-358.011 1071.4,-387.78"/>
<polygon fill="black" stroke="black" points="1070.62,-384.348 1061.12,-389.028 1071.47,-391.297 1070.62,-384.348"/>
</g>
<!-- Phone Number&#45;&gt;Entity -->
<g id="edge17" class="edge"><title>Phone Number&#45;&gt;Entity</title>
<path fill="none" stroke="black" d="M1794.61,-218.945C1581.47,-336.501 1548.85,-345.256 1071.66,-390.126"/>
<polygon fill="black" stroke="black" points="1071.01,-386.672 1061.38,-391.092 1071.66,-393.641 1071.01,-386.672"/>
</g>
<!-- Email Address&#45;&gt;Entity -->
<g id="edge18" class="edge"><title>Email Address&#45;&gt;Entity</title>
<path fill="none" stroke="black" d="M2046.41,-222.487C1770.56,-334.521 1723.93,-342.079 1071.7,-391.775"/>
<polygon fill="black" stroke="black" points="1071.27,-388.298 1061.57,-392.547 1071.81,-395.277 1071.27,-388.298"/>
</g>
<!-- TermMention -->
<g id="node9" class="node"><title>TermMention</title>
<ellipse fill="none" stroke="black" cx="117.678" cy="-50.343" rx="60.3893" ry="18"/>
<text text-anchor="middle" x="117.678" y="-46.643" font-family="Times,serif" font-size="14.00">TermMention</text>
</g>
<!-- Artifact&#45;&gt;TermMention -->
<g id="edge19" class="edge"><title>Artifact&#45;&gt;TermMention</title>
<path fill="none" stroke="lightgrey" d="M110.831,-184.684C91.1962,-132.56 89.7634,-120.516 106.532,-77.665"/>
<polygon fill="lightgrey" stroke="lightgrey" points="109.795,-78.9315 110.257,-68.3467 103.295,-76.3331 109.795,-78.9315"/>
<text text-anchor="middle" x="47.5" y="-130.8" font-family="Times,serif" font-size="14.00">hasTermMention</text>
</g>
</g>
</svg>
