<?xml version="1.0" encoding="UTF-8" standalone="no"?>
<!DOCTYPE svg PUBLIC "-//W3C//DTD SVG 1.1//EN"
 "http://www.w3.org/Graphics/SVG/1.1/DTD/svg11.dtd">
<!-- Generated by graphviz version 2.31.20130521.0446 (20130521.0446)
 -->
<!-- Title: %3 Pages: 1 -->
<svg width="3286pt" height="504pt"
 viewBox="0.00 0.00 3285.52 503.88" xmlns="http://www.w3.org/2000/svg" xmlns:xlink="http://www.w3.org/1999/xlink">
<g id="graph0" class="graph" transform="scale(1 1) rotate(0) translate(4 499.876)">
<title>%3</title>
<polygon fill="white" stroke="white" points="-4,5 -4,-499.876 3282.52,-499.876 3282.52,5 -4,5"/>
<!-- Entity -->
<g id="node1" class="node"><title>Entity</title>
<ellipse fill="none" stroke="black" cx="871.684" cy="-359.2" rx="32.4942" ry="18"/>
<text text-anchor="middle" x="871.684" y="-355.5" font-family="Times,serif" font-size="14.00">Entity</text>
</g>
<!-- company -->
<g id="node2" class="node"><title>company</title>
<ellipse fill="none" stroke="black" cx="2032.6" cy="-173.343" rx="91.8478" ry="26.3269"/>
<text text-anchor="start" x="2005.6" y="-177.643" font-family="Times,serif" font-weight="bold" font-size="14.00">company</text>
<text text-anchor="start" x="1976.1" y="-163.643" font-family="Times,serif" font-size="14.00">netIncome: currency</text>
</g>
<!-- organization -->
<g id="node4" class="node"><title>organization</title>
<ellipse fill="none" stroke="black" cx="1562.41" cy="-359.2" rx="89.6056" ry="26.3269"/>
<text text-anchor="start" x="1525.91" y="-363.5" font-family="Times,serif" font-weight="bold" font-size="14.00">organization</text>
<text text-anchor="start" x="1507.41" y="-349.5" font-family="Times,serif" font-size="14.00">formationDate: date</text>
</g>
<!-- company&#45;&gt;organization -->
<g id="edge31" class="edge"><title>company&#45;&gt;organization</title>
<path fill="none" stroke="black" d="M2005.8,-198.591C1900.54,-297.097 1873.05,-310.221 1651.77,-345.303"/>
<polygon fill="black" stroke="black" points="1651.11,-341.865 1641.77,-346.882 1652.2,-348.779 1651.11,-341.865"/>
</g>
<!-- person -->
<g id="node3" class="node"><title>person</title>
<ellipse fill="none" stroke="black" cx="1074.18" cy="-359.2" rx="70.0071" ry="26.3269"/>
<text text-anchor="start" x="1054.18" y="-363.5" font-family="Times,serif" font-weight="bold" font-size="14.00">person</text>
<text text-anchor="start" x="1033.18" y="-349.5" font-family="Times,serif" font-size="14.00">birthDate: date</text>
</g>
<!-- person&#45;&gt;company -->
<g id="edge7" class="edge"><title>person&#45;&gt;company</title>
<path fill="none" stroke="lightgrey" d="M1142.03,-366.164C1398.11,-391.509 1447.63,-378.752 1964.88,-197.136"/>
<polygon fill="lightgrey" stroke="lightgrey" points="1966.19,-200.387 1974.46,-193.771 1963.87,-193.782 1966.19,-200.387"/>
<text text-anchor="middle" x="1502.72" y="-317.845" font-family="Times,serif" font-size="14.00">personWorksAtCompany</text>
</g>
<!-- person&#45;&gt;person -->
<g id="edge6" class="edge"><title>person&#45;&gt;person</title>
<path fill="none" stroke="lightgrey" d="M1130.58,-374.71C1160.28,-377.219 1187.19,-372.049 1187.19,-359.2 1187.19,-347.856 1166.22,-342.497 1140.87,-343.124"/>
<polygon fill="lightgrey" stroke="lightgrey" points="1140.38,-339.646 1130.58,-343.69 1140.76,-346.635 1140.38,-339.646"/>
<text text-anchor="middle" x="1243.19" y="-355.5" font-family="Times,serif" font-size="14.00">personKnowsPerson</text>
</g>
<!-- location -->
<g id="node5" class="node"><title>location</title>
<ellipse fill="none" stroke="black" cx="3164.38" cy="-359.2" rx="113.274" ry="26.3269"/>
<text text-anchor="start" x="3141.38" y="-363.5" font-family="Times,serif" font-weight="bold" font-size="14.00">location</text>
<text text-anchor="start" x="3092.88" y="-349.5" font-family="Times,serif" font-size="14.00">geoLocation: geoLocation</text>
</g>
<!-- person&#45;&gt;location -->
<g id="edge8" class="edge"><title>person&#45;&gt;location</title>
<path fill="none" stroke="lightgrey" d="M1142.17,-365.661C2443.8,-489.332 2520.01,-493.761 3070.32,-378.947"/>
<polygon fill="lightgrey" stroke="lightgrey" points="3071.44,-382.289 3080.51,-376.819 3070.01,-375.437 3071.44,-382.289"/>
<text text-anchor="middle" x="2324" y="-465.536" font-family="Times,serif" font-size="14.00">personLivesAtLocation</text>
</g>
<!-- phoneNumber -->
<g id="node6" class="node"><title>phoneNumber</title>
<ellipse fill="none" stroke="black" cx="2856.47" cy="-359.2" rx="66.0889" ry="18"/>
<text text-anchor="start" x="2813.97" y="-356.5" font-family="Times,serif" font-weight="bold" font-size="14.00">phoneNumber</text>
</g>
<!-- person&#45;&gt;phoneNumber -->
<g id="edge9" class="edge"><title>person&#45;&gt;phoneNumber</title>
<path fill="none" stroke="lightgrey" d="M1141.87,-366.401C2253.33,-484.598 2305.25,-486.883 2795.96,-373.256"/>
<polygon fill="lightgrey" stroke="lightgrey" points="2796.84,-376.646 2805.79,-370.978 2795.26,-369.826 2796.84,-376.646"/>
<text text-anchor="middle" x="2133.7" y="-460.562" font-family="Times,serif" font-size="14.00">personHasPhoneNumber</text>
</g>
<!-- emailAddress -->
<g id="node7" class="node"><title>emailAddress</title>
<ellipse fill="none" stroke="black" cx="2617.91" cy="-359.2" rx="63.0888" ry="18"/>
<text text-anchor="start" x="2577.91" y="-356.5" font-family="Times,serif" font-weight="bold" font-size="14.00">emailAddress</text>
</g>
<!-- person&#45;&gt;emailAddress -->
<g id="edge10" class="edge"><title>person&#45;&gt;emailAddress</title>
<path fill="none" stroke="lightgrey" d="M1139.08,-369.377C2074.1,-515.93 2117.58,-518.042 2566.02,-375.714"/>
<polygon fill="lightgrey" stroke="lightgrey" points="2567.2,-379.01 2575.67,-372.647 2565.08,-372.338 2567.2,-379.01"/>
<text text-anchor="middle" x="1967.52" y="-484.676" font-family="Times,serif" font-size="14.00">personHasEmailAddress</text>
</g>
<!-- entity -->
<g id="node9" class="node"><title>entity</title>
<ellipse fill="none" stroke="black" cx="2337.73" cy="-173.343" rx="84.788" ry="56"/>
<text text-anchor="start" x="2320.73" y="-198.643" font-family="Times,serif" font-weight="bold" font-size="14.00">entity</text>
<text text-anchor="start" x="2291.73" y="-184.643" font-family="Times,serif" font-size="14.00">_subType: string</text>
<text text-anchor="start" x="2307.73" y="-170.643" font-family="Times,serif" font-size="14.00">title: string</text>
<text text-anchor="start" x="2286.23" y="-156.643" font-family="Times,serif" font-size="14.00">_glyphIcon: image</text>
<text text-anchor="start" x="2303.23" y="-142.643" font-family="Times,serif" font-size="14.00">_type: string</text>
</g>
<!-- person&#45;&gt;entity -->
<g id="edge5" class="edge"><title>person&#45;&gt;entity</title>
<path fill="none" stroke="black" d="M1144.25,-359.077C1885.85,-357.691 1949.48,-353.344 2258.88,-210.16"/>
<polygon fill="black" stroke="black" points="2260.51,-213.265 2268.11,-205.884 2257.57,-206.914 2260.51,-213.265"/>
</g>
<!-- endDate -->
<g id="node11" class="node"><title>endDate</title>
<ellipse fill="none" stroke="black" cx="1178.21" cy="-173.343" rx="40.0939" ry="18"/>
<text text-anchor="middle" x="1178.21" y="-169.643" font-family="Times,serif" font-size="14.00">endDate</text>
</g>
<!-- person&#45;&gt;endDate -->
<g id="edge11" class="edge"><title>person&#45;&gt;endDate</title>
<path fill="none" stroke="lightgrey" d="M1139.31,-349.168C1182.69,-316.619 1216.32,-242.583 1199.97,-198.959"/>
<polygon fill="lightgrey" stroke="lightgrey" points="1203.08,-197.335 1195.55,-189.876 1196.78,-200.399 1203.08,-197.335"/>
<text text-anchor="middle" x="1122.08" y="-281.934" font-family="Times,serif" font-size="14.00">personWorksAtCompany</text>
</g>
<!-- person&#45;&gt;endDate -->
<g id="edge12" class="edge"><title>person&#45;&gt;endDate</title>
<path fill="none" stroke="lightgrey" d="M1052.57,-333.979C1033.87,-285.2 1078.35,-197.795 1129.04,-173.579"/>
<polygon fill="lightgrey" stroke="lightgrey" points="1130.54,-176.746 1138.56,-169.816 1127.97,-170.236 1130.54,-176.746"/>
<text text-anchor="middle" x="1000.98" y="-241.17" font-family="Times,serif" font-size="14.00">personHasEmailAddress</text>
</g>
<!-- person&#45;&gt;endDate -->
<g id="edge13" class="edge"><title>person&#45;&gt;endDate</title>
<path fill="none" stroke="lightgrey" d="M1066.59,-332.857C1070.96,-294.175 1107.33,-225.686 1139.65,-191.814"/>
<polygon fill="lightgrey" stroke="lightgrey" points="1142.18,-194.237 1146.9,-184.751 1137.29,-189.224 1142.18,-194.237"/>
<text text-anchor="middle" x="1040.58" y="-256.988" font-family="Times,serif" font-size="14.00">personKnowsPerson</text>
</g>
<!-- person&#45;&gt;endDate -->
<g id="edge14" class="edge"><title>person&#45;&gt;endDate</title>
<path fill="none" stroke="lightgrey" d="M1088.65,-333.357C1108.38,-298.106 1143.54,-235.278 1163.43,-199.741"/>
<polygon fill="lightgrey" stroke="lightgrey" points="1166.55,-201.342 1168.38,-190.906 1160.44,-197.923 1166.55,-201.342"/>
<text text-anchor="middle" x="1192.4" y="-251.141" font-family="Times,serif" font-size="14.00">personLivesAtLocation</text>
</g>
<!-- person&#45;&gt;endDate -->
<g id="edge15" class="edge"><title>person&#45;&gt;endDate</title>
<path fill="none" stroke="lightgrey" d="M1115.29,-338.004C1146.47,-303.816 1180.51,-239.321 1185.59,-201.393"/>
<polygon fill="lightgrey" stroke="lightgrey" points="1189.11,-201.185 1186.22,-190.993 1182.13,-200.764 1189.11,-201.185"/>
<text text-anchor="middle" x="1228.99" y="-273.428" font-family="Times,serif" font-size="14.00">personHasPhoneNumber</text>
</g>
<!-- startDate -->
<g id="node12" class="node"><title>startDate</title>
<ellipse fill="none" stroke="black" cx="387.624" cy="-173.343" rx="42.4939" ry="18"/>
<text text-anchor="middle" x="387.624" y="-169.643" font-family="Times,serif" font-size="14.00">startDate</text>
</g>
<!-- person&#45;&gt;startDate -->
<g id="edge16" class="edge"><title>person&#45;&gt;startDate</title>
<path fill="none" stroke="lightgrey" d="M1062.65,-333.157C983.561,-254.364 538.928,-132.869 417.63,-155.157"/>
<polygon fill="lightgrey" stroke="lightgrey" points="416.785,-151.76 407.865,-157.476 418.403,-158.57 416.785,-151.76"/>
<text text-anchor="middle" x="676.783" y="-207.549" font-family="Times,serif" font-size="14.00">personWorksAtCompany</text>
</g>
<!-- person&#45;&gt;startDate -->
<g id="edge17" class="edge"><title>person&#45;&gt;startDate</title>
<path fill="none" stroke="lightgrey" d="M1029.13,-379.303C889.654,-390.596 473.875,-274.822 398.777,-199.005"/>
<polygon fill="lightgrey" stroke="lightgrey" points="401.411,-196.699 392.271,-191.341 396.075,-201.229 401.411,-196.699"/>
<text text-anchor="middle" x="622.299" y="-325.617" font-family="Times,serif" font-size="14.00">personHasEmailAddress</text>
</g>
<!-- person&#45;&gt;startDate -->
<g id="edge18" class="edge"><title>person&#45;&gt;startDate</title>
<path fill="none" stroke="lightgrey" d="M1004.1,-360.79C854.395,-339.213 509.646,-243.875 413.056,-194.755"/>
<polygon fill="lightgrey" stroke="lightgrey" points="414.712,-191.671 404.249,-190.006 411.39,-197.832 414.712,-191.671"/>
<text text-anchor="middle" x="632.649" y="-291.898" font-family="Times,serif" font-size="14.00">personKnowsPerson</text>
</g>
<!-- person&#45;&gt;startDate -->
<g id="edge19" class="edge"><title>person&#45;&gt;startDate</title>
<path fill="none" stroke="lightgrey" d="M1017.42,-343.832C884.297,-307.796 554.167,-218.427 433.084,-185.649"/>
<polygon fill="lightgrey" stroke="lightgrey" points="433.944,-182.256 423.377,-183.022 432.115,-189.013 433.944,-182.256"/>
<text text-anchor="middle" x="656.067" y="-267.138" font-family="Times,serif" font-size="14.00">personLivesAtLocation</text>
</g>
<!-- person&#45;&gt;startDate -->
<g id="edge20" class="edge"><title>person&#45;&gt;startDate</title>
<path fill="none" stroke="lightgrey" d="M1044.07,-335.464C936.739,-283.417 573.429,-184.314 438.494,-169.273"/>
<polygon fill="lightgrey" stroke="lightgrey" points="438.719,-165.778 428.421,-168.271 438.026,-172.744 438.719,-165.778"/>
<text text-anchor="middle" x="672.981" y="-239.389" font-family="Times,serif" font-size="14.00">personHasPhoneNumber</text>
</g>
<!-- organization&#45;&gt;location -->
<g id="edge22" class="edge"><title>organization&#45;&gt;location</title>
<path fill="none" stroke="lightgrey" d="M1651.19,-363.314C2591,-406.834 2682.96,-409.452 3051.4,-371.168"/>
<polygon fill="lightgrey" stroke="lightgrey" points="3051.96,-374.628 3061.54,-370.11 3051.24,-367.666 3051.96,-374.628"/>
<text text-anchor="middle" x="2461.06" y="-386.717" font-family="Times,serif" font-size="14.00">organizationHeadquarteredAtLocation</text>
</g>
<!-- organization&#45;&gt;phoneNumber -->
<g id="edge23" class="edge"><title>organization&#45;&gt;phoneNumber</title>
<path fill="none" stroke="lightgrey" d="M1650.71,-364.365C2410.39,-408.752 2471.08,-410.136 2786.56,-368.517"/>
<polygon fill="lightgrey" stroke="lightgrey" points="2787.47,-371.927 2796.92,-367.146 2786.55,-364.987 2787.47,-371.927"/>
<text text-anchor="middle" x="2469.21" y="-402.493" font-family="Times,serif" font-size="14.00">organizationHasPhoneNumber</text>
</g>
<!-- organization&#45;&gt;emailAddress -->
<g id="edge24" class="edge"><title>organization&#45;&gt;emailAddress</title>
<path fill="none" stroke="lightgrey" d="M1649.83,-365.607C2246.59,-409.259 2302.28,-410.699 2552.86,-369.927"/>
<polygon fill="lightgrey" stroke="lightgrey" points="2553.7,-373.335 2563.01,-368.27 2552.57,-366.427 2553.7,-373.335"/>
<text text-anchor="middle" x="2148.16" y="-403.226" font-family="Times,serif" font-size="14.00">organizationHasEmailAddress</text>
</g>
<!-- organization&#45;&gt;entity -->
<g id="edge21" class="edge"><title>organization&#45;&gt;entity</title>
<path fill="none" stroke="black" d="M1642.99,-347.428C2045.8,-288.477 2109.24,-276.537 2258.61,-209.659"/>
<polygon fill="black" stroke="black" points="2260.42,-212.68 2268.11,-205.385 2257.55,-206.297 2260.42,-212.68"/>
</g>
<!-- organization&#45;&gt;endDate -->
<g id="edge25" class="edge"><title>organization&#45;&gt;endDate</title>
<path fill="none" stroke="lightgrey" d="M1546.38,-333.234C1491.62,-285.045 1315.93,-198.405 1228.26,-174.392"/>
<polygon fill="lightgrey" stroke="lightgrey" points="1229.08,-170.99 1218.52,-171.9 1227.34,-177.771 1229.08,-170.99"/>
<text text-anchor="middle" x="1284.27" y="-228.187" font-family="Times,serif" font-size="14.00">organizationHeadquarteredAtLocation</text>
</g>
<!-- organization&#45;&gt;endDate -->
<g id="edge26" class="edge"><title>organization&#45;&gt;endDate</title>
<path fill="none" stroke="lightgrey" d="M1480.78,-348.181C1386.96,-315.399 1240.49,-240.951 1192.98,-198.19"/>
<polygon fill="lightgrey" stroke="lightgrey" points="1195.35,-195.608 1185.76,-191.101 1190.44,-200.604 1195.35,-195.608"/>
<text text-anchor="middle" x="1402.49" y="-280.718" font-family="Times,serif" font-size="14.00">organizationHasEmailAddress</text>
</g>
<!-- organization&#45;&gt;endDate -->
<g id="edge27" class="edge"><title>organization&#45;&gt;endDate</title>
<path fill="none" stroke="lightgrey" d="M1516.06,-336.781C1438.86,-299.436 1285.48,-225.235 1215.08,-191.181"/>
<polygon fill="lightgrey" stroke="lightgrey" points="1216.24,-187.855 1205.72,-186.65 1213.2,-194.156 1216.24,-187.855"/>
<text text-anchor="middle" x="1445.03" y="-265.581" font-family="Times,serif" font-size="14.00">organizationHasPhoneNumber</text>
</g>
<!-- organization&#45;&gt;startDate -->
<g id="edge28" class="edge"><title>organization&#45;&gt;startDate</title>
<path fill="none" stroke="lightgrey" d="M1513.76,-337.171C1323.38,-282.497 630.193,-172.962 437.559,-167.306"/>
<polygon fill="lightgrey" stroke="lightgrey" points="437.51,-163.805 427.441,-167.101 437.368,-170.803 437.51,-163.805"/>
<text text-anchor="middle" x="868.766" y="-222.146" font-family="Times,serif" font-size="14.00">organizationHeadquarteredAtLocation</text>
</g>
<!-- organization&#45;&gt;startDate -->
<g id="edge29" class="edge"><title>organization&#45;&gt;startDate</title>
<path fill="none" stroke="lightgrey" d="M1473.23,-363.175C1233.01,-346.352 579.998,-241.126 422.242,-191.153"/>
<polygon fill="lightgrey" stroke="lightgrey" points="423.171,-187.774 412.577,-187.943 420.964,-194.417 423.171,-187.774"/>
<text text-anchor="middle" x="833.801" y="-293.393" font-family="Times,serif" font-size="14.00">organizationHasEmailAddress</text>
</g>
<!-- organization&#45;&gt;startDate -->
<g id="edge30" class="edge"><title>organization&#45;&gt;startDate</title>
<path fill="none" stroke="lightgrey" d="M1483.04,-346.644C1258.05,-311.049 620.519,-210.188 437.384,-181.215"/>
<polygon fill="lightgrey" stroke="lightgrey" points="437.914,-177.756 427.49,-179.65 436.82,-184.67 437.914,-177.756"/>
<text text-anchor="middle" x="860.498" y="-265.243" font-family="Times,serif" font-size="14.00">organizationHasPhoneNumber</text>
</g>
<!-- location&#45;&gt;entity -->
<g id="edge32" class="edge"><title>location&#45;&gt;entity</title>
<path fill="none" stroke="black" d="M3103.64,-337.122C2927.25,-273.561 2874.23,-262.649 2430.02,-188.69"/>
<polygon fill="black" stroke="black" points="2430.57,-185.233 2420.13,-187.043 2429.42,-192.138 2430.57,-185.233"/>
</g>
<!-- phoneNumber&#45;&gt;entity -->
<g id="edge33" class="edge"><title>phoneNumber&#45;&gt;entity</title>
<path fill="none" stroke="black" d="M2828.95,-342.644C2717.24,-275.741 2688.21,-264.655 2426.68,-196.457"/>
<polygon fill="black" stroke="black" points="2427.43,-193.038 2416.87,-193.903 2425.67,-199.811 2427.43,-193.038"/>
</g>
<!-- emailAddress&#45;&gt;entity -->
<g id="edge34" class="edge"><title>emailAddress&#45;&gt;entity</title>
<path fill="none" stroke="black" d="M2603.52,-341.316C2553.4,-279.456 2535.88,-265.29 2416.47,-209.603"/>
<polygon fill="black" stroke="black" points="2417.85,-206.387 2407.31,-205.343 2414.9,-212.734 2417.85,-206.387"/>
</g>
<!-- artifact -->
<g id="node8" class="node"><title>artifact</title>
<ellipse fill="none" stroke="black" cx="113" cy="-173.343" rx="113" ry="56"/>
<text text-anchor="start" x="91.5" y="-198.643" font-family="Times,serif" font-weight="bold" font-size="14.00">artifact</text>
<text text-anchor="start" x="78.5" y="-184.643" font-family="Times,serif" font-size="14.00">_type: string</text>
<text text-anchor="start" x="67" y="-170.643" font-family="Times,serif" font-size="14.00">_subType: string</text>
<text text-anchor="start" x="83" y="-156.643" font-family="Times,serif" font-size="14.00">title: string</text>
<text text-anchor="start" x="41.5" y="-142.643" font-family="Times,serif" font-size="14.00">geoLocation: geoLocation</text>
</g>
<!-- artifact&#45;&gt;entity -->
<g id="edge2" class="edge"><title>artifact&#45;&gt;entity</title>
<path fill="none" stroke="lightgrey" d="M225.232,-180.745C612.005,-192.056 1885.3,-191.873 2243.33,-180.195"/>
<polygon fill="lightgrey" stroke="lightgrey" points="2243.52,-183.691 2253.4,-179.855 2243.28,-176.695 2243.52,-183.691"/>
<text text-anchor="middle" x="1271.1" y="-192.891" font-family="Times,serif" font-size="14.00">hasEntity</text>
</g>
<!-- rootConcept -->
<g id="node10" class="node"><title>rootConcept</title>
<ellipse fill="none" stroke="black" cx="1494.44" cy="-18" rx="58.4896" ry="18"/>
<text text-anchor="start" x="1457.94" y="-15.3" font-family="Times,serif" font-weight="bold" font-size="14.00">rootConcept</text>
</g>
<!-- artifact&#45;&gt;rootConcept -->
<g id="edge1" class="edge"><title>artifact&#45;&gt;rootConcept</title>
<path fill="none" stroke="black" d="M210.009,-144.359C527.925,-50.5021 606.685,-45.8145 1425.83,-20.1466"/>
<polygon fill="black" stroke="black" points="1426.23,-23.636 1436.11,-19.8245 1426.01,-16.6394 1426.23,-23.636"/>
</g>
<!-- entity&#45;&gt;artifact -->
<g id="edge4" class="edge"><title>entity&#45;&gt;artifact</title>
<path fill="none" stroke="lightgrey" d="M2253.57,-166.527C1913.16,-154.041 637.281,-153.629 235.175,-165.292"/>
<polygon fill="lightgrey" stroke="lightgrey" points="234.865,-161.8 224.974,-165.596 235.074,-168.797 234.865,-161.8"/>
<text text-anchor="middle" x="1265.65" y="-160.644" font-family="Times,serif" font-size="14.00">hasImage</text>
</g>
<!-- entity&#45;&gt;rootConcept -->
<g id="edge3" class="edge"><title>entity&#45;&gt;rootConcept</title>
<path fill="none" stroke="black" d="M2273.99,-136.425C2073.5,-21.7759 2023.52,-16.6683 1563.3,-17.8054"/>
<polygon fill="black" stroke="black" points="1563.04,-14.306 1553.05,-17.8316 1563.06,-21.306 1563.04,-14.306"/>
</g>
</g>
</svg>
