<?xml version="1.0" encoding="UTF-8" standalone="no"?>
<!DOCTYPE svg PUBLIC "-//W3C//DTD SVG 1.1//EN"
 "http://www.w3.org/Graphics/SVG/1.1/DTD/svg11.dtd">
<!-- Generated by graphviz version 2.31.20130521.0446 (20130521.0446)
 -->
<!-- Title: %3 Pages: 1 -->
<svg width="692pt" height="381pt"
 viewBox="0.00 0.00 691.99 381.35" xmlns="http://www.w3.org/2000/svg" xmlns:xlink="http://www.w3.org/1999/xlink">
<g id="graph0" class="graph" transform="scale(1 1) rotate(0) translate(4 377.35)">
<title>%3</title>
<polygon fill="white" stroke="white" points="-4,5 -4,-377.35 688.993,-377.35 688.993,5 -4,5"/>
<!-- Entity -->
<g id="node1" class="node"><title>Entity</title>
<ellipse fill="none" stroke="black" cx="413.892" cy="-327.35" rx="72.1307" ry="46"/>
<text text-anchor="start" x="395.392" y="-345.65" font-family="Times,serif" font-weight="bold" font-size="14.00">Entity</text>
<text text-anchor="start" x="383.892" y="-331.65" font-family="Times,serif" font-size="14.00">title: string</text>
<text text-anchor="start" x="371.392" y="-317.65" font-family="Times,serif" font-size="14.00">subType: string</text>
<text text-anchor="start" x="382.892" y="-303.65" font-family="Times,serif" font-size="14.00">type: string</text>
</g>
<!-- Company -->
<g id="node2" class="node"><title>Company</title>
<ellipse fill="none" stroke="black" cx="269.729" cy="-18" rx="48.9926" ry="18"/>
<text text-anchor="start" x="240.729" y="-15.3" font-family="Times,serif" font-weight="bold" font-size="14.00">Company</text>
</g>
<!-- Organization -->
<g id="node4" class="node"><title>Organization</title>
<ellipse fill="none" stroke="black" cx="413.892" cy="-162.163" rx="61.99" ry="18"/>
<text text-anchor="start" x="374.892" y="-159.463" font-family="Times,serif" font-weight="bold" font-size="14.00">Organization</text>
</g>
<!-- Company&#45;&gt;Organization -->
<g id="edge5" class="edge"><title>Company&#45;&gt;Organization</title>
<path fill="none" stroke="black" d="M300.904,-31.9543C339.321,-50.4057 351.502,-65.0965 396.611,-135.189"/>
<polygon fill="black" stroke="black" points="393.93,-137.492 402.279,-144.015 399.821,-133.709 393.93,-137.492"/>
</g>
<!-- Person -->
<g id="node3" class="node"><title>Person</title>
<ellipse fill="none" stroke="black" cx="70.0036" cy="-162.163" rx="70.0071" ry="26.3269"/>
<text text-anchor="start" x="50.0036" y="-166.463" font-family="Times,serif" font-weight="bold" font-size="14.00">Person</text>
<text text-anchor="start" x="29.0036" y="-152.463" font-family="Times,serif" font-size="14.00">birthDate: date</text>
</g>
<!-- Person&#45;&gt;Entity -->
<g id="edge1" class="edge"><title>Person&#45;&gt;Entity</title>
<path fill="none" stroke="black" d="M91.9852,-187.152C165.7,-270.262 187.914,-283.811 334.815,-312.431"/>
<polygon fill="black" stroke="black" points="334.19,-315.875 344.673,-314.339 335.52,-309.002 334.19,-315.875"/>
</g>
<!-- Person&#45;&gt;Company -->
<g id="edge3" class="edge"><title>Person&#45;&gt;Company</title>
<path fill="none" stroke="lightgrey" d="M85.2319,-136.6C122.534,-74.9848 136.959,-63.6007 224.069,-33.4706"/>
<polygon fill="lightgrey" stroke="lightgrey" points="225.274,-36.7574 233.595,-30.1982 223,-30.1371 225.274,-36.7574"/>
<text text-anchor="middle" x="125.017" y="-68.7206" font-family="Times,serif" font-size="14.00">worksAt</text>
</g>
<!-- Person&#45;&gt;Person -->
<g id="edge2" class="edge"><title>Person&#45;&gt;Person</title>
<path fill="none" stroke="lightgrey" d="M126.403,-177.673C156.098,-180.183 183.007,-175.013 183.007,-162.163 183.007,-150.819 162.035,-145.461 136.689,-146.087"/>
<polygon fill="lightgrey" stroke="lightgrey" points="136.195,-142.609 126.403,-146.653 136.58,-149.598 136.195,-142.609"/>
<text text-anchor="middle" x="201.007" y="-158.463" font-family="Times,serif" font-size="14.00">knows</text>
</g>
<!-- Organization&#45;&gt;Entity -->
<g id="edge4" class="edge"><title>Organization&#45;&gt;Entity</title>
<path fill="none" stroke="black" d="M418.41,-180.371C430.495,-229.322 435.157,-251.401 432.396,-272.252"/>
<polygon fill="black" stroke="black" points="428.94,-271.693 430.526,-282.168 435.819,-272.99 428.94,-271.693"/>
</g>
<!-- Location -->
<g id="node5" class="node"><title>Location</title>
<ellipse fill="none" stroke="black" cx="639.147" cy="-162.163" rx="44.6926" ry="18"/>
<text text-anchor="start" x="613.147" y="-159.463" font-family="Times,serif" font-weight="bold" font-size="14.00">Location</text>
</g>
<!-- Location&#45;&gt;Entity -->
<g id="edge6" class="edge"><title>Location&#45;&gt;Entity</title>
<path fill="none" stroke="black" d="M628.661,-179.67C588.048,-247.043 574.212,-261.736 484.646,-298.919"/>
<polygon fill="black" stroke="black" points="483.059,-295.788 475.146,-302.833 485.726,-302.26 483.059,-295.788"/>
</g>
</g>
</svg>
