<?xml version="1.0" encoding="UTF-8" standalone="no"?>
<!DOCTYPE svg PUBLIC "-//W3C//DTD SVG 1.1//EN"
 "http://www.w3.org/Graphics/SVG/1.1/DTD/svg11.dtd">
<!-- Generated by graphviz version 2.31.20130521.0446 (20130521.0446)
 -->
<!-- Title: %3 Pages: 1 -->
<svg width="1791pt" height="439pt"
 viewBox="0.00 0.00 1790.52 438.75" xmlns="http://www.w3.org/2000/svg" xmlns:xlink="http://www.w3.org/1999/xlink">
<g id="graph0" class="graph" transform="scale(1 1) rotate(0) translate(4 434.755)">
<title>%3</title>
<polygon fill="white" stroke="white" points="-4,5 -4,-434.755 1787.52,-434.755 1787.52,5 -4,5"/>
<!-- Entity -->
<g id="node1" class="node"><title>Entity</title>
<ellipse fill="none" stroke="black" cx="821.946" cy="-374.755" rx="84.788" ry="56"/>
<text text-anchor="start" x="803.446" y="-400.055" font-family="Times,serif" font-weight="bold" font-size="14.00">Entity</text>
<text text-anchor="start" x="770.446" y="-386.055" font-family="Times,serif" font-size="14.00">_glyphIcon: image</text>
<text text-anchor="start" x="791.946" y="-372.055" font-family="Times,serif" font-size="14.00">title: string</text>
<text text-anchor="start" x="775.946" y="-358.055" font-family="Times,serif" font-size="14.00">_subType: string</text>
<text text-anchor="start" x="787.446" y="-344.055" font-family="Times,serif" font-size="14.00">_type: string</text>
</g>
<!-- Artifact -->
<g id="node8" class="node"><title>Artifact</title>
<ellipse fill="none" stroke="black" cx="38.3466" cy="-178.489" rx="38.1938" ry="18"/>
<text text-anchor="middle" x="38.3466" y="-174.789" font-family="Times,serif" font-size="14.00">Artifact</text>
</g>
<!-- Entity&#45;&gt;Artifact -->
<g id="edge1" class="edge"><title>Entity&#45;&gt;Artifact</title>
<path fill="none" stroke="lightgrey" d="M748.829,-346.37C590.343,-297.861 218.86,-205.453 86.3412,-182.347"/>
<polygon fill="lightgrey" stroke="lightgrey" points="86.9213,-178.895 76.4785,-180.684 85.7575,-185.798 86.9213,-178.895"/>
<text text-anchor="middle" x="381.324" y="-258.626" font-family="Times,serif" font-size="14.00">hasImage</text>
</g>
<!-- company -->
<g id="node2" class="node"><title>company</title>
<ellipse fill="none" stroke="black" cx="1128.06" cy="-26.163" rx="91.8478" ry="26.3269"/>
<text text-anchor="start" x="1101.06" y="-30.463" font-family="Times,serif" font-weight="bold" font-size="14.00">company</text>
<text text-anchor="start" x="1071.56" y="-16.463" font-family="Times,serif" font-size="14.00">netIncome: currency</text>
</g>
<!-- organization -->
<g id="node4" class="node"><title>organization</title>
<ellipse fill="none" stroke="black" cx="635.933" cy="-178.489" rx="89.6056" ry="26.3269"/>
<text text-anchor="start" x="599.433" y="-182.789" font-family="Times,serif" font-weight="bold" font-size="14.00">organization</text>
<text text-anchor="start" x="580.933" y="-168.789" font-family="Times,serif" font-size="14.00">formationDate: date</text>
</g>
<!-- company&#45;&gt;organization -->
<g id="edge12" class="edge"><title>company&#45;&gt;organization</title>
<path fill="none" stroke="black" d="M1040.99,-17.5284C881.592,-3.67338 847.285,-20.1326 676.812,-147.773"/>
<polygon fill="black" stroke="black" points="674.493,-145.138 668.59,-153.936 678.691,-150.739 674.493,-145.138"/>
</g>
<!-- location -->
<g id="node5" class="node"><title>location</title>
<ellipse fill="none" stroke="black" cx="1128.06" cy="-178.489" rx="113.274" ry="26.3269"/>
<text text-anchor="start" x="1105.06" y="-182.789" font-family="Times,serif" font-weight="bold" font-size="14.00">location</text>
<text text-anchor="start" x="1056.56" y="-168.789" font-family="Times,serif" font-size="14.00">geoLocation: geoLocation</text>
</g>
<!-- company&#45;&gt;location -->
<g id="edge13" class="edge"><title>company&#45;&gt;location</title>
<path fill="none" stroke="lightgrey" d="M1139.16,-52.2256C1151.92,-84.153 1151.86,-98.0601 1138.98,-142.457"/>
<polygon fill="lightgrey" stroke="lightgrey" points="1135.61,-141.501 1136.13,-152.083 1142.32,-143.485 1135.61,-141.501"/>
<text text-anchor="middle" x="1102.58" y="-106.449" font-family="Times,serif" font-size="14.00">headquarteredAt</text>
</g>
<!-- phoneNumber -->
<g id="node6" class="node"><title>phoneNumber</title>
<ellipse fill="none" stroke="black" cx="1453.22" cy="-178.489" rx="66.0889" ry="18"/>
<text text-anchor="start" x="1410.72" y="-175.789" font-family="Times,serif" font-weight="bold" font-size="14.00">phoneNumber</text>
</g>
<!-- company&#45;&gt;phoneNumber -->
<g id="edge14" class="edge"><title>company&#45;&gt;phoneNumber</title>
<path fill="none" stroke="lightgrey" d="M1197.81,-43.3075C1343.21,-79.5583 1366.4,-91.0773 1428.5,-153.343"/>
<polygon fill="lightgrey" stroke="lightgrey" points="1426.34,-156.133 1435.87,-160.772 1431.31,-151.206 1426.34,-156.133"/>
<text text-anchor="middle" x="1295.91" y="-92.3752" font-family="Times,serif" font-size="14.00">hasPhoneNumber</text>
</g>
<!-- emailAddress -->
<g id="node7" class="node"><title>emailAddress</title>
<ellipse fill="none" stroke="black" cx="1713.93" cy="-178.489" rx="68.6788" ry="26.3269"/>
<text text-anchor="start" x="1673.93" y="-182.789" font-family="Times,serif" font-weight="bold" font-size="14.00">emailAddress</text>
<text text-anchor="start" x="1678.43" y="-168.789" font-family="Times,serif" font-size="14.00">active: string</text>
</g>
<!-- company&#45;&gt;emailAddress -->
<g id="edge15" class="edge"><title>company&#45;&gt;emailAddress</title>
<path fill="none" stroke="lightgrey" d="M1212.57,-36.6514C1505.78,-73.2897 1546.24,-82.6965 1667.24,-151.527"/>
<polygon fill="lightgrey" stroke="lightgrey" points="1665.67,-154.665 1676.09,-156.587 1669.15,-148.587 1665.67,-154.665"/>
<text text-anchor="middle" x="1456.49" y="-85.8179" font-family="Times,serif" font-size="14.00">hasEmailAddress</text>
</g>
<!-- person -->
<g id="node3" class="node"><title>person</title>
<ellipse fill="none" stroke="black" cx="259.512" cy="-178.489" rx="70.0071" ry="26.3269"/>
<text text-anchor="start" x="239.512" y="-182.789" font-family="Times,serif" font-weight="bold" font-size="14.00">person</text>
<text text-anchor="start" x="218.512" y="-168.789" font-family="Times,serif" font-size="14.00">birthDate: date</text>
</g>
<!-- person&#45;&gt;Entity -->
<g id="edge2" class="edge"><title>person&#45;&gt;Entity</title>
<path fill="none" stroke="black" d="M291.841,-201.823C413.402,-288.955 445.875,-300.953 730.491,-356.893"/>
<polygon fill="black" stroke="black" points="730.235,-360.41 740.722,-358.902 731.584,-353.541 730.235,-360.41"/>
</g>
<!-- person&#45;&gt;company -->
<g id="edge4" class="edge"><title>person&#45;&gt;company</title>
<path fill="none" stroke="lightgrey" d="M297.67,-156.303C526.224,-23.8979 564.205,-15.7753 1025.86,-24.2086"/>
<polygon fill="lightgrey" stroke="lightgrey" points="1026.09,-27.7133 1036.15,-24.398 1026.21,-20.7145 1026.09,-27.7133"/>
<text text-anchor="middle" x="629.322" y="-31.1883" font-family="Times,serif" font-size="14.00">worksAt</text>
</g>
<!-- person&#45;&gt;person -->
<g id="edge3" class="edge"><title>person&#45;&gt;person</title>
<path fill="none" stroke="lightgrey" d="M315.911,-193.999C345.606,-196.508 372.516,-191.338 372.516,-178.489 372.516,-167.145 351.544,-161.786 326.197,-162.413"/>
<polygon fill="lightgrey" stroke="lightgrey" points="325.704,-158.935 315.911,-162.979 326.089,-165.924 325.704,-158.935"/>
<text text-anchor="middle" x="390.516" y="-174.789" font-family="Times,serif" font-size="14.00">knows</text>
</g>
<!-- person&#45;&gt;location -->
<g id="edge5" class="edge"><title>person&#45;&gt;location</title>
<path fill="none" stroke="lightgrey" d="M326.419,-170.473C512.333,-148.717 569.971,-149.277 1007.54,-172.152"/>
<polygon fill="lightgrey" stroke="lightgrey" points="1007.45,-175.651 1017.62,-172.679 1007.82,-168.661 1007.45,-175.651"/>
<text text-anchor="middle" x="652.421" y="-145.339" font-family="Times,serif" font-size="14.00">livesAt</text>
</g>
<!-- person&#45;&gt;phoneNumber -->
<g id="edge6" class="edge"><title>person&#45;&gt;phoneNumber</title>
<path fill="none" stroke="lightgrey" d="M307.438,-159.31C682.44,-9.6863 719.584,-11.4642 1392.45,-164.643"/>
<polygon fill="lightgrey" stroke="lightgrey" points="1391.88,-168.102 1402.4,-166.909 1393.43,-161.276 1391.88,-168.102"/>
<text text-anchor="middle" x="820.142" y="-62.0228" font-family="Times,serif" font-size="14.00">hasPhoneNumber</text>
</g>
<!-- person&#45;&gt;emailAddress -->
<g id="edge7" class="edge"><title>person&#45;&gt;emailAddress</title>
<path fill="none" stroke="lightgrey" d="M327.048,-171.399C1207.73,-79.0006 1264.74,-76.0975 1645.02,-162.69"/>
<polygon fill="lightgrey" stroke="lightgrey" points="1644.4,-166.138 1654.93,-164.949 1645.96,-159.313 1644.4,-166.138"/>
<text text-anchor="middle" x="1125.69" y="-88.7229" font-family="Times,serif" font-size="14.00">hasEmailAddress</text>
</g>
<!-- organization&#45;&gt;Entity -->
<g id="edge8" class="edge"><title>organization&#45;&gt;Entity</title>
<path fill="none" stroke="black" d="M645.508,-204.788C671.487,-275.125 683.812,-294.844 748.172,-333.253"/>
<polygon fill="black" stroke="black" points="746.768,-336.488 757.161,-338.546 750.32,-330.456 746.768,-336.488"/>
</g>
<!-- organization&#45;&gt;location -->
<g id="edge9" class="edge"><title>organization&#45;&gt;location</title>
<path fill="none" stroke="lightgrey" d="M686.654,-156.806C841.443,-91.4544 874.233,-90.2755 1056.27,-153.27"/>
<polygon fill="lightgrey" stroke="lightgrey" points="1055.31,-156.64 1065.9,-156.614 1057.6,-150.028 1055.31,-156.64"/>
<text text-anchor="middle" x="833.623" y="-111.162" font-family="Times,serif" font-size="14.00">headquarteredAt</text>
</g>
<!-- organization&#45;&gt;phoneNumber -->
<g id="edge10" class="edge"><title>organization&#45;&gt;phoneNumber</title>
<path fill="none" stroke="lightgrey" d="M723.718,-172.584C1153.41,-143.773 1209.14,-142.299 1384.97,-168.163"/>
<polygon fill="lightgrey" stroke="lightgrey" points="1384.67,-171.657 1395.07,-169.66 1385.69,-164.733 1384.67,-171.657"/>
<text text-anchor="middle" x="1101.05" y="-138.67" font-family="Times,serif" font-size="14.00">hasPhoneNumber</text>
</g>
<!-- organization&#45;&gt;emailAddress -->
<g id="edge11" class="edge"><title>organization&#45;&gt;emailAddress</title>
<path fill="none" stroke="lightgrey" d="M725.091,-175.199C1329.66,-152.93 1394.56,-151.839 1636.5,-171.928"/>
<polygon fill="lightgrey" stroke="lightgrey" points="1636.41,-175.432 1646.66,-172.775 1636.99,-168.456 1636.41,-175.432"/>
<text text-anchor="middle" x="1364.78" y="-146.479" font-family="Times,serif" font-size="14.00">hasEmailAddress</text>
</g>
<!-- location&#45;&gt;Entity -->
<g id="edge16" class="edge"><title>location&#45;&gt;Entity</title>
<path fill="none" stroke="black" d="M1110.67,-204.421C1046.54,-299.43 1026.44,-318.486 910.814,-351.066"/>
<polygon fill="black" stroke="black" points="909.525,-347.792 900.832,-353.848 911.405,-354.535 909.525,-347.792"/>
</g>
<!-- phoneNumber&#45;&gt;Entity -->
<g id="edge17" class="edge"><title>phoneNumber&#45;&gt;Entity</title>
<path fill="none" stroke="black" d="M1428.8,-195.418C1277.86,-299.752 1249.66,-310.397 914.716,-360.872"/>
<polygon fill="black" stroke="black" points="914.084,-357.427 904.717,-362.377 915.126,-364.349 914.084,-357.427"/>
</g>
<!-- emailAddress&#45;&gt;Entity -->
<g id="edge18" class="edge"><title>emailAddress&#45;&gt;Entity</title>
<path fill="none" stroke="black" d="M1671.18,-198.954C1458.78,-300.173 1417.1,-309.101 915.814,-364.426"/>
<polygon fill="black" stroke="black" points="915.33,-360.958 905.774,-365.534 916.097,-367.916 915.33,-360.958"/>
</g>
<!-- Artifact&#45;&gt;Entity -->
<g id="edge19" class="edge"><title>Artifact&#45;&gt;Entity</title>
<path fill="none" stroke="lightgrey" d="M64.6246,-191.905C168.063,-229.65 549.908,-326.799 728.607,-362.74"/>
<polygon fill="lightgrey" stroke="lightgrey" points="728.03,-366.194 738.521,-364.712 729.396,-359.328 728.03,-366.194"/>
<text text-anchor="middle" x="352.062" y="-289.736" font-family="Times,serif" font-size="14.00">hasTermMention</text>
</g>
</g>
</svg>
